0 KeySig 0 major
0 Tempo 1200000
1680 Tempo 1276596
1720 Tempo 1333333
1760 Tempo 1276596
1920 Tempo 1200000
6480 Tempo 1276596
6520 Tempo 1333333
6560 Tempo 1276596
6720 Tempo 1200000
8760 Tempo 1276596
8800 Tempo 1333333
8840 Tempo 1276596
9000 Tempo 1200000
10080 Tempo 1250000
10200 Tempo 1304348
10320 Tempo 1395349
10440 Tempo 1428571
10480 Tempo 1463415
10520 Tempo 1500000
10560 Tempo 1200000
17520 Tempo 1276596
17560 Tempo 1333333
17600 Tempo 1276596
17760 Tempo 1200000
18320 Tempo 1276596
18360 Tempo 1333333
18400 Tempo 1276596
18440 Tempo 1200000
19200 Tempo 1250000
19320 Tempo 1333333
19440 Tempo 1500000
19560 Tempo 1578947
19680 Tempo 1333333
19880 Tempo 1304348
19920 Tempo 1276596
19960 Tempo 1250000
20000 Tempo 1224490
20040 Tempo 1200000
27600 Tempo 1276596
27640 Tempo 1333333
27680 Tempo 1276596
27720 Tempo 1200000
28200 Tempo 1276596
28240 Tempo 1333333
28280 Tempo 1428571
28320 Tempo 1276596
29280 Tempo 1200000
30120 Tempo 1333333
30160 Tempo 1500000
30200 Tempo 1714286
30240 Tempo 1200000
31080 Tempo 1333333
31120 Tempo 1500000
31160 Tempo 1714286
31200 Tempo 1333333
31440 Tempo 1428571
31680 Tempo 1500000
32040 Tempo 1714286
32080 Tempo 1875000
32120 Tempo 2000000
32160 Tempo 2400000
32160 Meta TrkEnd
TrkEnd
MTrk
0 Meta 0x21 00
0 Meta TrkName "1st Mvmt Sonata No.14, Opus 27, No.2"
0 Par ch=1 c=0 v=0
0 PrCh ch=1 p=0
0 Par ch=1 c=64 v=56
1 Par ch=1 c=64 v=88
2 Par ch=1 c=64 v=127
40 On ch=1 n=61 v=30
80 On ch=1 n=61 v=0
80 On ch=1 n=64 v=43
120 On ch=1 n=64 v=0
160 On ch=1 n=61 v=29
200 On ch=1 n=61 v=0
200 On ch=1 n=64 v=32
240 On ch=1 n=64 v=0
280 On ch=1 n=61 v=25
320 On ch=1 n=61 v=0
320 On ch=1 n=64 v=25
360 On ch=1 n=64 v=0
400 On ch=1 n=61 v=29
440 On ch=1 n=61 v=0
440 On ch=1 n=64 v=29
480 On ch=1 n=64 v=0
483 Par ch=1 c=64 v=88
485 Par ch=1 c=64 v=24
487 Par ch=1 c=64 v=0
506 Par ch=1 c=64 v=40
507 Par ch=1 c=64 v=88
510 Par ch=1 c=64 v=127
520 On ch=1 n=61 v=27
558 On ch=1 n=64 v=27
561 On ch=1 n=61 v=0
598 On ch=1 n=64 v=0
640 On ch=1 n=61 v=29
680 On ch=1 n=61 v=0
680 On ch=1 n=64 v=27
720 On ch=1 n=64 v=0
760 On ch=1 n=61 v=25
800 On ch=1 n=61 v=0
800 On ch=1 n=64 v=34
840 On ch=1 n=64 v=0
880 On ch=1 n=61 v=31
920 On ch=1 n=61 v=0
920 On ch=1 n=64 v=37
960 On ch=1 n=64 v=0
960 On ch=1 n=57 v=41
961 Par ch=1 c=64 v=72
963 Par ch=1 c=64 v=0
990 Par ch=1 c=64 v=56
991 Par ch=1 c=64 v=127
1000 On ch=1 n=57 v=0
1000 On ch=1 n=61 v=25
1040 On ch=1 n=61 v=0
1040 On ch=1 n=64 v=33
1080 On ch=1 n=64 v=0
1080 On ch=1 n=57 v=28
1120 On ch=1 n=57 v=0
1120 On ch=1 n=61 v=33
1160 On ch=1 n=61 v=0
1160 On ch=1 n=64 v=32
1200 On ch=1 n=64 v=0
1200 On ch=1 n=57 v=36
1200 Par ch=1 c=64 v=0
1201 Par ch=1 c=64 v=88
1227 Par ch=1 c=64 v=56
1230 Par ch=1 c=64 v=127
1240 On ch=1 n=62 v=37
1278 On ch=1 n=57 v=0
1280 On ch=1 n=62 v=0
1280 On ch=1 n=66 v=42
1320 On ch=1 n=66 v=0
1320 On ch=1 n=57 v=33
1360 On ch=1 n=57 v=0
1360 On ch=1 n=62 v=31
1400 On ch=1 n=62 v=0
1400 On ch=1 n=66 v=34
1438 Par ch=1 c=64 v=40
1440 On ch=1 n=66 v=0
1441 Par ch=1 c=64 v=0
1461 Par ch=1 c=64 v=88
1463 Par ch=1 c=64 v=127
1480 On ch=1 n=60 v=26
1520 On ch=1 n=60 v=0
1520 On ch=1 n=66 v=36
1560 On ch=1 n=66 v=0
1600 On ch=1 n=61 v=28
1640 On ch=1 n=61 v=0
1640 On ch=1 n=64 v=33
1680 On ch=1 n=64 v=0
1685 Par ch=1 c=64 v=72
1687 Par ch=1 c=64 v=0
1707 Par ch=1 c=64 v=24
1710 Par ch=1 c=64 v=88
1711 Par ch=1 c=64 v=127
1720 On ch=1 n=61 v=26
1760 On ch=1 n=61 v=0
1760 On ch=1 n=63 v=46
1800 On ch=1 n=63 v=0
1840 On ch=1 n=60 v=38
1880 On ch=1 n=60 v=0
1880 On ch=1 n=63 v=25
1920 On ch=1 n=63 v=0
1925 Par ch=1 c=64 v=104
1927 Par ch=1 c=64 v=40
1928 Par ch=1 c=64 v=0
1950 Par ch=1 c=64 v=72
1951 Par ch=1 c=64 v=127
2000 On ch=1 n=61 v=35
2040 On ch=1 n=61 v=0
2080 On ch=1 n=61 v=22
2120 On ch=1 n=61 v=0
2120 On ch=1 n=64 v=21
2160 On ch=1 n=64 v=0
2200 On ch=1 n=61 v=27
2240 On ch=1 n=61 v=0
2240 On ch=1 n=64 v=39
2280 On ch=1 n=64 v=0
2280 On ch=1 n=68 v=55
2320 On ch=1 n=61 v=28
2360 On ch=1 n=61 v=0
2360 On ch=1 n=64 v=26
2370 On ch=1 n=68 v=0
2370 On ch=1 n=68 v=48
2400 On ch=1 n=68 v=0
2400 On ch=1 n=64 v=0
2400 On ch=1 n=68 v=55
2411 Par ch=1 c=64 v=72
2413 Par ch=1 c=64 v=0
2440 On ch=1 n=63 v=31
2441 Par ch=1 c=64 v=56
2442 Par ch=1 c=64 v=127
2443 Par ch=1 c=64 v=104
2480 On ch=1 n=63 v=0
2480 On ch=1 n=66 v=33
2520 On ch=1 n=66 v=0
2560 On ch=1 n=63 v=26
2600 On ch=1 n=63 v=0
2600 On ch=1 n=66 v=27
2640 On ch=1 n=66 v=0
2680 On ch=1 n=63 v=31
2720 On ch=1 n=63 v=0
2720 On ch=1 n=66 v=33
2759 On ch=1 n=68 v=0
2760 On ch=1 n=66 v=0
2760 On ch=1 n=68 v=49
2800 On ch=1 n=63 v=32
2840 On ch=1 n=63 v=0
2840 On ch=1 n=66 v=38
2850 On ch=1 n=68 v=0
2850 On ch=1 n=68 v=52
2880 On ch=1 n=68 v=0
2880 On ch=1 n=66 v=0
2880 On ch=1 n=68 v=61
2888 Par ch=1 c=64 v=88
2891 Par ch=1 c=64 v=0
2913 Par ch=1 c=64 v=24
2915 Par ch=1 c=64 v=72
2917 Par ch=1 c=64 v=127
2920 On ch=1 n=61 v=29
2960 On ch=1 n=61 v=0
2960 On ch=1 n=64 v=30
3000 On ch=1 n=64 v=0
3040 On ch=1 n=61 v=23
3080 On ch=1 n=61 v=0
3080 On ch=1 n=64 v=32
3119 On ch=1 n=68 v=0
3120 On ch=1 n=64 v=0
3120 On ch=1 n=69 v=54
3120 On ch=1 n=57 v=38
3128 Par ch=1 c=64 v=56
3131 Par ch=1 c=64 v=0
3150 Par ch=1 c=64 v=104
3151 Par ch=1 c=64 v=127
3160 On ch=1 n=61 v=26
3161 On ch=1 n=57 v=0
3200 On ch=1 n=61 v=0
3200 On ch=1 n=66 v=32
3240 On ch=1 n=66 v=0
3240 On ch=1 n=57 v=26
3280 On ch=1 n=57 v=0
3280 On ch=1 n=61 v=27
3320 On ch=1 n=61 v=0
3320 On ch=1 n=66 v=33
3358 Par ch=1 c=64 v=88
3359 On ch=1 n=69 v=0
3360 On ch=1 n=66 v=0
3360 On ch=1 n=68 v=51
3361 Par ch=1 c=64 v=0
3375 Par ch=1 c=64 v=24
3377 Par ch=1 c=64 v=72
3378 Par ch=1 c=64 v=127
3400 On ch=1 n=59 v=51
3440 On ch=1 n=59 v=0
3440 On ch=1 n=64 v=40
3480 On ch=1 n=64 v=0
3520 On ch=1 n=59 v=24
3560 On ch=1 n=59 v=0
3560 On ch=1 n=64 v=34
3596 Par ch=1 c=64 v=56
3598 On ch=1 n=66 v=53
3598 Par ch=1 c=64 v=0
3599 On ch=1 n=68 v=0
3600 On ch=1 n=64 v=0
3600 On ch=1 n=57 v=38
3615 Par ch=1 c=64 v=72
3617 Par ch=1 c=64 v=127
3640 On ch=1 n=57 v=0
3640 On ch=1 n=59 v=29
3649 On ch=1 n=66 v=0
3680 On ch=1 n=59 v=0
3680 On ch=1 n=63 v=18
3710 On ch=1 n=57 v=40
3719 On ch=1 n=57 v=0
3720 On ch=1 n=63 v=0
3720 On ch=1 n=71 v=48
3760 On ch=1 n=59 v=34
3800 On ch=1 n=59 v=0
3800 On ch=1 n=63 v=40
3839 On ch=1 n=71 v=0
3840 On ch=1 n=63 v=0
3840 On ch=1 n=64 v=51
3845 Par ch=1 c=64 v=56
3846 Par ch=1 c=64 v=0
3863 Par ch=1 c=64 v=56
3865 Par ch=1 c=64 v=127
3880 On ch=1 n=59 v=35
3920 On ch=1 n=59 v=0
3920 On ch=1 n=64 v=25
3959 On ch=1 n=64 v=0
3960 On ch=1 n=64 v=0
4000 On ch=1 n=59 v=24
4040 On ch=1 n=59 v=0
4040 On ch=1 n=64 v=30
4080 On ch=1 n=64 v=0
4120 On ch=1 n=59 v=24
4160 On ch=1 n=59 v=0
4160 On ch=1 n=64 v=36
4200 On ch=1 n=64 v=0
4240 On ch=1 n=59 v=26
4280 On ch=1 n=59 v=0
4280 On ch=1 n=64 v=28
4320 On ch=1 n=64 v=0
4322 Par ch=1 c=64 v=88
4325 Par ch=1 c=64 v=24
4327 Par ch=1 c=64 v=0
4348 Par ch=1 c=64 v=72
4351 Par ch=1 c=64 v=127
4360 On ch=1 n=59 v=35
4400 On ch=1 n=59 v=0
4400 On ch=1 n=64 v=30
4440 On ch=1 n=64 v=0
4480 On ch=1 n=59 v=22
4520 On ch=1 n=59 v=0
4520 On ch=1 n=64 v=27
4560 On ch=1 n=64 v=0
4600 On ch=1 n=59 v=24
4640 On ch=1 n=59 v=0
4640 On ch=1 n=64 v=25
4680 On ch=1 n=64 v=0
4680 On ch=1 n=67 v=58
4720 On ch=1 n=59 v=33
4760 On ch=1 n=59 v=0
4760 On ch=1 n=64 v=41
4770 On ch=1 n=67 v=0
4770 On ch=1 n=67 v=37
4800 On ch=1 n=67 v=0
4800 On ch=1 n=64 v=0
4800 On ch=1 n=67 v=48
4807 Par ch=1 c=64 v=88
4808 Par ch=1 c=64 v=0
4835 Par ch=1 c=64 v=72
4837 Par ch=1 c=64 v=127
4840 On ch=1 n=59 v=36
4880 On ch=1 n=59 v=0
4880 On ch=1 n=65 v=41
4920 On ch=1 n=65 v=0
4960 On ch=1 n=59 v=25
5000 On ch=1 n=59 v=0
5000 On ch=1 n=65 v=30
5040 On ch=1 n=65 v=0
5080 On ch=1 n=59 v=24
5120 On ch=1 n=59 v=0
5120 On ch=1 n=65 v=34
5159 On ch=1 n=67 v=0
5160 On ch=1 n=65 v=0
5160 On ch=1 n=67 v=55
5200 On ch=1 n=59 v=35
5240 On ch=1 n=59 v=0
5240 On ch=1 n=65 v=42
5250 On ch=1 n=67 v=0
5250 On ch=1 n=67 v=56
5280 On ch=1 n=67 v=0
5280 On ch=1 n=65 v=0
5280 On ch=1 n=67 v=53
5286 Par ch=1 c=64 v=56
5288 Par ch=1 c=64 v=0
5311 Par ch=1 c=64 v=88
5313 Par ch=1 c=64 v=127
5320 On ch=1 n=60 v=37
5360 On ch=1 n=60 v=0
5360 On ch=1 n=64 v=36
5400 On ch=1 n=64 v=0
5406 Par ch=1 c=64 v=56
5407 Par ch=1 c=64 v=0
5426 Par ch=1 c=64 v=40
5427 Par ch=1 c=64 v=127
5440 On ch=1 n=59 v=36
5480 On ch=1 n=59 v=0
5480 On ch=1 n=64 v=29
5520 On ch=1 n=64 v=0
5522 Par ch=1 c=64 v=56
5525 Par ch=1 c=64 v=0
5541 Par ch=1 c=64 v=40
5542 Par ch=1 c=64 v=104
5545 Par ch=1 c=64 v=127
5560 On ch=1 n=61 v=38
5600 On ch=1 n=61 v=0
5600 On ch=1 n=64 v=36
5639 On ch=1 n=67 v=0
5640 On ch=1 n=64 v=0
5640 On ch=1 n=66 v=60
5680 On ch=1 n=61 v=43
5720 On ch=1 n=61 v=0
5720 On ch=1 n=64 v=36
5759 On ch=1 n=66 v=0
5760 On ch=1 n=64 v=0
5760 On ch=1 n=66 v=43
5767 Par ch=1 c=64 v=104
5768 Par ch=1 c=64 v=24
5771 Par ch=1 c=64 v=0
5791 Par ch=1 c=64 v=40
5793 Par ch=1 c=64 v=104
5795 Par ch=1 c=64 v=127
5800 On ch=1 n=59 v=27
5840 On ch=1 n=59 v=0
5840 On ch=1 n=62 v=25
5880 On ch=1 n=62 v=0
5920 On ch=1 n=59 v=37
5960 On ch=1 n=59 v=0
5960 On ch=1 n=62 v=33
5999 On ch=1 n=66 v=0
6000 On ch=1 n=62 v=0
6000 On ch=1 n=67 v=58
6005 Par ch=1 c=64 v=56
6006 Par ch=1 c=64 v=0
6025 Par ch=1 c=64 v=88
6027 Par ch=1 c=64 v=127
6040 On ch=1 n=59 v=42
6080 On ch=1 n=59 v=0
6080 On ch=1 n=61 v=47
6119 On ch=1 n=67 v=0
6120 On ch=1 n=61 v=0
6120 On ch=1 n=64 v=54
6123 Par ch=1 c=64 v=24
6126 Par ch=1 c=64 v=0
6133 Par ch=1 c=64 v=24
6136 Par ch=1 c=64 v=72
6137 Par ch=1 c=64 v=127
6160 On ch=1 n=59 v=43
6200 On ch=1 n=59 v=0
6200 On ch=1 n=61 v=54
6239 On ch=1 n=64 v=0
6240 On ch=1 n=61 v=0
6240 On ch=1 n=66 v=54
6241 Par ch=1 c=64 v=104
6242 Par ch=1 c=64 v=0
6265 Par ch=1 c=64 v=40
6267 Par ch=1 c=64 v=104
6268 Par ch=1 c=64 v=127
6280 On ch=1 n=59 v=31
6320 On ch=1 n=59 v=0
6320 On ch=1 n=62 v=37
6360 On ch=1 n=62 v=0
6400 On ch=1 n=59 v=27
6440 On ch=1 n=59 v=0
6440 On ch=1 n=62 v=37
6479 On ch=1 n=66 v=0
6480 On ch=1 n=62 v=0
6480 On ch=1 n=66 v=48
6481 Par ch=1 c=64 v=104
6482 Par ch=1 c=64 v=24
6485 Par ch=1 c=64 v=0
6508 Par ch=1 c=64 v=56
6511 Par ch=1 c=64 v=127
6520 On ch=1 n=58 v=30
6560 On ch=1 n=58 v=0
6560 On ch=1 n=61 v=37
6600 On ch=1 n=61 v=0
6640 On ch=1 n=58 v=32
6680 On ch=1 n=58 v=0
6680 On ch=1 n=61 v=30
6720 On ch=1 n=59 v=30
6721 On ch=1 n=61 v=0
6721 On ch=1 n=66 v=0
6725 Par ch=1 c=64 v=88
6726 Par ch=1 c=64 v=0
6747 Par ch=1 c=64 v=56
6748 Par ch=1 c=64 v=127
6760 On ch=1 n=59 v=0
6760 On ch=1 n=62 v=24
6800 On ch=1 n=62 v=0
6800 On ch=1 n=66 v=31
6840 On ch=1 n=66 v=0
6840 On ch=1 n=59 v=48
6880 On ch=1 n=59 v=0
6880 On ch=1 n=62 v=39
6920 On ch=1 n=62 v=0
6920 On ch=1 n=66 v=40
6960 On ch=1 n=66 v=0
6960 On ch=1 n=59 v=46
7000 On ch=1 n=59 v=0
7000 On ch=1 n=63 v=49
7040 On ch=1 n=63 v=0
7040 On ch=1 n=66 v=49
7077 Par ch=1 c=64 v=104
7080 On ch=1 n=66 v=0
7080 On ch=1 n=71 v=66
7080 On ch=1 n=59 v=56
7080 Par ch=1 c=64 v=0
7096 Par ch=1 c=64 v=72
7097 Par ch=1 c=64 v=127
7120 On ch=1 n=59 v=0
7120 On ch=1 n=63 v=34
7160 On ch=1 n=63 v=0
7160 On ch=1 n=66 v=40
7190 On ch=1 n=59 v=49
7199 On ch=1 n=71 v=0
7200 On ch=1 n=66 v=0
7200 On ch=1 n=72 v=82
7205 Par ch=1 c=64 v=24
7206 Par ch=1 c=64 v=0
7221 Par ch=1 c=64 v=72
7222 Par ch=1 c=64 v=127
7239 On ch=1 n=59 v=0
7240 On ch=1 n=64 v=52
7280 On ch=1 n=64 v=0
7280 On ch=1 n=67 v=33
7317 Par ch=1 c=64 v=40
7320 On ch=1 n=67 v=0
7320 On ch=1 n=59 v=42
7320 Par ch=1 c=64 v=0
7327 Par ch=1 c=64 v=24
7328 Par ch=1 c=64 v=72
7331 Par ch=1 c=64 v=127
7358 On ch=1 n=64 v=40
7398 On ch=1 n=64 v=0
7400 On ch=1 n=67 v=24
7414 On ch=1 n=59 v=0
7438 Par ch=1 c=64 v=72
7440 On ch=1 n=67 v=0
7440 On ch=1 n=59 v=57
7440 Par ch=1 c=64 v=0
7446 Par ch=1 c=64 v=56
7448 Par ch=1 c=64 v=88
7450 Par ch=1 c=64 v=127
7480 On ch=1 n=59 v=0
7480 On ch=1 n=64 v=41
7520 On ch=1 n=64 v=0
7520 On ch=1 n=67 v=55
7559 On ch=1 n=72 v=0
7560 On ch=1 n=67 v=0
7560 On ch=1 n=70 v=54
7560 On ch=1 n=59 v=47
7560 Par ch=1 c=64 v=40
7563 Par ch=1 c=64 v=0
7571 Par ch=1 c=64 v=56
7573 Par ch=1 c=64 v=104
7576 Par ch=1 c=64 v=127
7600 On ch=1 n=59 v=0
7600 On ch=1 n=64 v=31
7640 On ch=1 n=64 v=0
7640 On ch=1 n=67 v=34
7679 On ch=1 n=70 v=0
7680 On ch=1 n=67 v=0
7680 On ch=1 n=71 v=44
7680 On ch=1 n=59 v=24
7682 Par ch=1 c=64 v=56
7685 Par ch=1 c=64 v=0
7702 Par ch=1 c=64 v=56
7705 Par ch=1 c=64 v=127
7720 On ch=1 n=59 v=0
7720 On ch=1 n=63 v=32
7760 On ch=1 n=63 v=0
7760 On ch=1 n=66 v=30
7800 On ch=1 n=66 v=0
7800 On ch=1 n=59 v=30
7840 On ch=1 n=59 v=0
7840 On ch=1 n=63 v=25
7880 On ch=1 n=63 v=0
7880 On ch=1 n=66 v=30
7920 On ch=1 n=66 v=0
7920 On ch=1 n=59 v=19
7960 On ch=1 n=59 v=0
7960 On ch=1 n=63 v=34
8000 On ch=1 n=63 v=0
8000 On ch=1 n=66 v=36
8038 Par ch=1 c=64 v=40
8039 On ch=1 n=71 v=0
8040 On ch=1 n=66 v=0
8040 On ch=1 n=59 v=44
8040 On ch=1 n=71 v=62
8041 Par ch=1 c=64 v=0
8050 Par ch=1 c=64 v=40
8051 Par ch=1 c=64 v=88
8053 Par ch=1 c=64 v=127
8080 On ch=1 n=59 v=0
8080 On ch=1 n=63 v=34
8120 On ch=1 n=66 v=33
8128 On ch=1 n=63 v=0
8143 On ch=1 n=66 v=0
8150 On ch=1 n=59 v=34
8159 On ch=1 n=71 v=0
8160 On ch=1 n=72 v=76
8168 Par ch=1 c=64 v=88
8170 Par ch=1 c=64 v=24
8172 Par ch=1 c=64 v=0
8176 Par ch=1 c=64 v=40
8178 Par ch=1 c=64 v=72
8180 Par ch=1 c=64 v=127
8200 On ch=1 n=59 v=0
8200 On ch=1 n=64 v=26
8240 On ch=1 n=64 v=0
8240 On ch=1 n=67 v=28
8278 Par ch=1 c=64 v=88
8280 On ch=1 n=67 v=0
8280 On ch=1 n=59 v=37
8281 Par ch=1 c=64 v=24
8283 Par ch=1 c=64 v=0
8290 Par ch=1 c=64 v=40
8291 Par ch=1 c=64 v=88
8293 Par ch=1 c=64 v=127
8320 On ch=1 n=59 v=0
8320 On ch=1 n=64 v=31
8360 On ch=1 n=64 v=0
8360 On ch=1 n=67 v=36
8396 Par ch=1 c=64 v=88
8398 Par ch=1 c=64 v=24
8400 On ch=1 n=67 v=0
8400 On ch=1 n=59 v=62
8400 Par ch=1 c=64 v=0
8405 Par ch=1 c=64 v=24
8406 Par ch=1 c=64 v=56
8408 Par ch=1 c=64 v=104
8410 Par ch=1 c=64 v=127
8440 On ch=1 n=59 v=0
8440 On ch=1 n=64 v=36
8480 On ch=1 n=64 v=0
8480 On ch=1 n=67 v=39
8519 On ch=1 n=72 v=0
8520 On ch=1 n=67 v=0
8520 On ch=1 n=59 v=47
8520 On ch=1 n=70 v=58
8520 Par ch=1 c=64 v=56
8521 Par ch=1 c=64 v=0
8525 Par ch=1 c=64 v=24
8527 Par ch=1 c=64 v=56
8528 Par ch=1 c=64 v=88
8531 Par ch=1 c=64 v=127
8560 On ch=1 n=59 v=0
8560 On ch=1 n=64 v=25
8600 On ch=1 n=64 v=0
8600 On ch=1 n=67 v=22
8639 On ch=1 n=70 v=0
8640 On ch=1 n=67 v=0
8640 On ch=1 n=71 v=47
8640 On ch=1 n=59 v=33
8642 Par ch=1 c=64 v=56
8645 Par ch=1 c=64 v=0
8662 Par ch=1 c=64 v=72
8665 Par ch=1 c=64 v=127
8680 On ch=1 n=59 v=0
8680 On ch=1 n=63 v=27
8720 On ch=1 n=63 v=0
8720 On ch=1 n=66 v=27
8760 On ch=1 n=66 v=0
8760 On ch=1 n=59 v=28
8800 On ch=1 n=59 v=0
8800 On ch=1 n=63 v=31
8840 On ch=1 n=63 v=0
8840 On ch=1 n=66 v=34
8876 Par ch=1 c=64 v=56
8878 Par ch=1 c=64 v=0
8879 On ch=1 n=71 v=0
8880 On ch=1 n=66 v=0
8880 On ch=1 n=59 v=28
8880 On ch=1 n=71 v=41
8892 Par ch=1 c=64 v=40
8895 Par ch=1 c=64 v=104
8896 Par ch=1 c=64 v=127
8920 On ch=1 n=59 v=0
8920 On ch=1 n=62 v=22
8960 On ch=1 n=62 v=0
8960 On ch=1 n=65 v=33
9000 On ch=1 n=65 v=0
9000 On ch=1 n=59 v=29
9040 On ch=1 n=59 v=0
9040 On ch=1 n=62 v=31
9080 On ch=1 n=62 v=0
9080 On ch=1 n=65 v=32
9119 On ch=1 n=71 v=0
9120 On ch=1 n=65 v=0
9120 On ch=1 n=59 v=31
9120 On ch=1 n=71 v=45
9120 Par ch=1 c=64 v=24
9122 Par ch=1 c=64 v=0
9136 Par ch=1 c=64 v=72
9138 Par ch=1 c=64 v=127
9160 On ch=1 n=59 v=0
9160 On ch=1 n=61 v=29
9200 On ch=1 n=61 v=0
9200 On ch=1 n=68 v=32
9240 On ch=1 n=68 v=0
9240 On ch=1 n=59 v=25
9280 On ch=1 n=59 v=0
9280 On ch=1 n=61 v=29
9320 On ch=1 n=61 v=0
9320 On ch=1 n=68 v=25
9359 On ch=1 n=71 v=0
9360 On ch=1 n=68 v=0
9360 On ch=1 n=69 v=60
9360 On ch=1 n=57 v=26
9360 Par ch=1 c=64 v=72
9362 Par ch=1 c=64 v=0
9382 Par ch=1 c=64 v=72
9385 Par ch=1 c=64 v=127
9400 On ch=1 n=57 v=0
9400 On ch=1 n=61 v=25
9440 On ch=1 n=61 v=0
9440 On ch=1 n=66 v=31
9480 On ch=1 n=66 v=0
9480 On ch=1 n=57 v=36
9520 On ch=1 n=57 v=0
9520 On ch=1 n=61 v=23
9560 On ch=1 n=61 v=0
9560 On ch=1 n=66 v=38
9599 On ch=1 n=69 v=0
9600 On ch=1 n=66 v=0
9600 On ch=1 n=67 v=67
9602 Par ch=1 c=64 v=72
9605 Par ch=1 c=64 v=0
9622 Par ch=1 c=64 v=56
9625 Par ch=1 c=64 v=127
9640 On ch=1 n=59 v=31
9680 On ch=1 n=59 v=0
9680 On ch=1 n=62 v=42
9720 On ch=1 n=62 v=0
9760 On ch=1 n=59 v=36
9800 On ch=1 n=59 v=0
9800 On ch=1 n=62 v=58
9837 Par ch=1 c=64 v=24
9839 On ch=1 n=67 v=0
9840 On ch=1 n=62 v=0
9840 On ch=1 n=66 v=62
9840 Par ch=1 c=64 v=0
9856 Par ch=1 c=64 v=56
9858 Par ch=1 c=64 v=127
9880 On ch=1 n=57 v=34
9920 On ch=1 n=57 v=0
9920 On ch=1 n=63 v=55
9960 On ch=1 n=63 v=0
10000 On ch=1 n=57 v=24
10040 On ch=1 n=57 v=0
10040 On ch=1 n=63 v=37
10079 On ch=1 n=66 v=0
10080 On ch=1 n=63 v=0
10080 On ch=1 n=61 v=32
10082 Par ch=1 c=64 v=88
10083 Par ch=1 c=64 v=0
10102 Par ch=1 c=64 v=56
10105 Par ch=1 c=64 v=127
10160 On ch=1 n=57 v=36
10200 On ch=1 n=57 v=0
10280 On ch=1 n=57 v=38
10319 On ch=1 n=61 v=0
10320 On ch=1 n=57 v=0
10320 On ch=1 n=61 v=46
10320 Par ch=1 c=64 v=88
10322 Par ch=1 c=64 v=0
10338 Par ch=1 c=64 v=40
10340 Par ch=1 c=64 v=127
10437 Par ch=1 c=64 v=104
10438 Par ch=1 c=64 v=40
10439 On ch=1 n=61 v=0
10440 On ch=1 n=61 v=34
10441 Par ch=1 c=64 v=0
10447 Par ch=1 c=64 v=24
10448 Par ch=1 c=64 v=56
10451 Par ch=1 c=64 v=104
10452 Par ch=1 c=64 v=127
10557 Par ch=1 c=64 v=88
10559 On ch=1 n=61 v=0
10560 Par ch=1 c=64 v=0
10582 Par ch=1 c=64 v=127
10600 On ch=1 n=57 v=25
10640 On ch=1 n=57 v=0
10640 On ch=1 n=61 v=40
10680 On ch=1 n=61 v=0
10680 On ch=1 n=57 v=49
10720 On ch=1 n=57 v=0
10720 On ch=1 n=61 v=27
10760 On ch=1 n=61 v=0
10760 On ch=1 n=66 v=39
10800 On ch=1 n=66 v=0
10800 On ch=1 n=61 v=46
10840 On ch=1 n=61 v=0
10840 On ch=1 n=66 v=28
10880 On ch=1 n=66 v=0
10880 On ch=1 n=69 v=39
10920 On ch=1 n=69 v=0
10920 On ch=1 n=61 v=64
10920 On ch=1 n=73 v=71
10960 On ch=1 n=61 v=0
10960 On ch=1 n=66 v=32
11000 On ch=1 n=66 v=0
11000 On ch=1 n=69 v=29
11010 On ch=1 n=73 v=0
11010 On ch=1 n=73 v=54
11040 On ch=1 n=73 v=0
11040 On ch=1 n=69 v=0
11040 On ch=1 n=73 v=61
11040 On ch=1 n=61 v=34
11055 Par ch=1 c=64 v=24
11058 Par ch=1 c=64 v=0
11078 Par ch=1 c=64 v=88
11080 Par ch=1 c=64 v=127
11080 On ch=1 n=68 v=35
11081 On ch=1 n=61 v=0
11120 On ch=1 n=68 v=0
11120 On ch=1 n=71 v=37
11160 On ch=1 n=71 v=0
11160 On ch=1 n=61 v=35
11200 On ch=1 n=61 v=0
11200 On ch=1 n=68 v=26
11240 On ch=1 n=68 v=0
11240 On ch=1 n=71 v=31
11279 On ch=1 n=73 v=0
11280 On ch=1 n=71 v=0
11280 On ch=1 n=61 v=34
11320 On ch=1 n=61 v=0
11320 On ch=1 n=68 v=32
11360 On ch=1 n=68 v=0
11360 On ch=1 n=71 v=24
11400 On ch=1 n=71 v=0
11400 On ch=1 n=73 v=57
11400 On ch=1 n=61 v=32
11440 On ch=1 n=61 v=0
11440 On ch=1 n=68 v=31
11480 On ch=1 n=68 v=0
11480 On ch=1 n=71 v=34
11490 On ch=1 n=73 v=0
11490 On ch=1 n=73 v=46
11520 On ch=1 n=73 v=0
11520 On ch=1 n=71 v=0
11520 On ch=1 n=73 v=61
11520 On ch=1 n=61 v=31
11530 Par ch=1 c=64 v=40
11532 Par ch=1 c=64 v=0
11550 Par ch=1 c=64 v=56
11551 Par ch=1 c=64 v=127
11560 On ch=1 n=61 v=0
11560 On ch=1 n=66 v=34
11600 On ch=1 n=66 v=0
11600 On ch=1 n=69 v=40
11640 On ch=1 n=69 v=0
11640 On ch=1 n=61 v=46
11680 On ch=1 n=66 v=32
11720 On ch=1 n=66 v=0
11720 On ch=1 n=69 v=34
11757 Par ch=1 c=64 v=56
11759 On ch=1 n=61 v=0
11759 On ch=1 n=73 v=0
11760 On ch=1 n=69 v=0
11760 On ch=1 n=60 v=63
11760 On ch=1 n=72 v=68
11760 Par ch=1 c=64 v=0
11776 Par ch=1 c=64 v=72
11778 Par ch=1 c=64 v=127
11800 On ch=1 n=60 v=0
11800 On ch=1 n=66 v=33
11840 On ch=1 n=66 v=0
11840 On ch=1 n=69 v=40
11872 Par ch=1 c=64 v=72
11875 Par ch=1 c=64 v=0
11879 On ch=1 n=72 v=0
11880 On ch=1 n=69 v=0
11880 On ch=1 n=73 v=81
11880 On ch=1 n=61 v=69
11888 Par ch=1 c=64 v=72
11891 Par ch=1 c=64 v=127
11920 On ch=1 n=61 v=0
11920 On ch=1 n=66 v=37
11960 On ch=1 n=66 v=0
11960 On ch=1 n=69 v=37
11993 Par ch=1 c=64 v=40
11996 Par ch=1 c=64 v=0
11999 On ch=1 n=73 v=0
12000 On ch=1 n=69 v=0
12000 On ch=1 n=63 v=64
12000 On ch=1 n=75 v=78
12012 Par ch=1 c=64 v=40
12013 Par ch=1 c=64 v=127
12040 On ch=1 n=63 v=0
12040 On ch=1 n=66 v=35
12080 On ch=1 n=66 v=0
12080 On ch=1 n=68 v=36
12120 On ch=1 n=68 v=0
12120 On ch=1 n=63 v=52
12160 On ch=1 n=63 v=0
12160 On ch=1 n=66 v=25
12200 On ch=1 n=66 v=0
12200 On ch=1 n=68 v=46
12240 On ch=1 n=68 v=0
12240 On ch=1 n=63 v=43
12280 On ch=1 n=63 v=0
12280 On ch=1 n=66 v=33
12320 On ch=1 n=66 v=0
12320 On ch=1 n=68 v=34
12359 On ch=1 n=75 v=0
12360 On ch=1 n=68 v=0
12360 On ch=1 n=75 v=71
12360 On ch=1 n=63 v=69
12363 Par ch=1 c=64 v=0
12381 Par ch=1 c=64 v=104
12383 Par ch=1 c=64 v=127
12400 On ch=1 n=63 v=0
12400 On ch=1 n=66 v=34
12440 On ch=1 n=66 v=0
12440 On ch=1 n=68 v=36
12479 On ch=1 n=75 v=0
12480 On ch=1 n=68 v=0
12480 On ch=1 n=76 v=71
12480 On ch=1 n=64 v=56
12483 Par ch=1 c=64 v=40
12486 Par ch=1 c=64 v=0
12502 Par ch=1 c=64 v=40
12503 Par ch=1 c=64 v=127
12520 On ch=1 n=64 v=0
12520 On ch=1 n=68 v=36
12560 On ch=1 n=68 v=0
12560 On ch=1 n=73 v=37
12600 On ch=1 n=73 v=0
12600 On ch=1 n=64 v=30
12640 On ch=1 n=64 v=0
12640 On ch=1 n=68 v=25
12680 On ch=1 n=68 v=0
12680 On ch=1 n=73 v=32
12716 Par ch=1 c=64 v=104
12717 Par ch=1 c=64 v=0
12720 On ch=1 n=73 v=0
12720 On ch=1 n=75 v=56
12720 On ch=1 n=63 v=45
12733 Par ch=1 c=64 v=72
12736 Par ch=1 c=64 v=127
12760 On ch=1 n=63 v=0
12760 On ch=1 n=66 v=44
12800 On ch=1 n=66 v=0
12800 On ch=1 n=69 v=46
12838 Par ch=1 c=64 v=24
12839 On ch=1 n=75 v=0
12839 On ch=1 n=76 v=0
12840 On ch=1 n=69 v=0
12840 On ch=1 n=73 v=71
12840 On ch=1 n=61 v=38
12841 Par ch=1 c=64 v=0
12855 Par ch=1 c=64 v=72
12857 Par ch=1 c=64 v=127
12880 On ch=1 n=61 v=0
12880 On ch=1 n=64 v=56
12920 On ch=1 n=64 v=0
12920 On ch=1 n=70 v=51
12957 Par ch=1 c=64 v=72
12959 On ch=1 n=73 v=0
12960 On ch=1 n=70 v=0
12960 On ch=1 n=72 v=41
12960 Par ch=1 c=64 v=0
12977 Par ch=1 c=64 v=88
12980 Par ch=1 c=64 v=127
13000 On ch=1 n=60 v=24
13040 On ch=1 n=60 v=0
13040 On ch=1 n=63 v=33
13079 On ch=1 n=72 v=0
13080 On ch=1 n=63 v=0
13080 On ch=1 n=68 v=58
13120 On ch=1 n=60 v=33
13160 On ch=1 n=60 v=0
13160 On ch=1 n=63 v=47
13199 On ch=1 n=68 v=0
13200 On ch=1 n=63 v=0
13200 On ch=1 n=69 v=66
13238 On ch=1 n=60 v=29
13278 On ch=1 n=60 v=0
13280 On ch=1 n=63 v=31
13319 On ch=1 n=69 v=0
13320 On ch=1 n=63 v=0
13320 On ch=1 n=66 v=43
13358 On ch=1 n=60 v=29
13398 On ch=1 n=60 v=0
13400 On ch=1 n=63 v=37
13439 On ch=1 n=66 v=0
13440 On ch=1 n=63 v=0
13440 Par ch=1 c=64 v=24
13441 Par ch=1 c=64 v=0
13457 Par ch=1 c=64 v=56
13460 Par ch=1 c=64 v=127
13677 Par ch=1 c=64 v=104
13680 On ch=1 n=57 v=74
13680 Par ch=1 c=64 v=0
13690 Par ch=1 c=64 v=40
13692 Par ch=1 c=64 v=88
13693 Par ch=1 c=64 v=127
13799 On ch=1 n=57 v=0
13907 Par ch=1 c=64 v=56
13910 Par ch=1 c=64 v=0
13921 Par ch=1 c=64 v=56
13923 Par ch=1 c=64 v=127
13960 On ch=1 n=64 v=40
13998 On ch=1 n=68 v=27
14000 On ch=1 n=64 v=0
14038 On ch=1 n=68 v=0
14040 On ch=1 n=73 v=64
14080 On ch=1 n=64 v=31
14120 On ch=1 n=64 v=0
14120 On ch=1 n=68 v=27
14159 On ch=1 n=73 v=0
14160 On ch=1 n=68 v=0
14160 On ch=1 n=76 v=70
14200 On ch=1 n=64 v=25
14240 On ch=1 n=64 v=0
14240 On ch=1 n=68 v=29
14279 On ch=1 n=76 v=0
14280 On ch=1 n=68 v=0
14280 On ch=1 n=73 v=51
14318 On ch=1 n=64 v=28
14358 On ch=1 n=64 v=0
14360 On ch=1 n=68 v=30
14396 Par ch=1 c=64 v=104
14397 Par ch=1 c=64 v=0
14399 On ch=1 n=73 v=0
14400 On ch=1 n=68 v=0
14416 Par ch=1 c=64 v=40
14417 Par ch=1 c=64 v=127
14520 On ch=1 n=61 v=59
14639 On ch=1 n=61 v=0
14640 On ch=1 n=64 v=68
14759 On ch=1 n=64 v=0
14760 On ch=1 n=61 v=47
14877 Par ch=1 c=64 v=88
14879 On ch=1 n=61 v=0
14880 Par ch=1 c=64 v=0
14900 Par ch=1 c=64 v=56
14901 Par ch=1 c=64 v=127
14920 On ch=1 n=57 v=31
14960 On ch=1 n=57 v=0
15000 On ch=1 n=60 v=51
15040 On ch=1 n=60 v=0
15040 On ch=1 n=57 v=44
15080 On ch=1 n=57 v=0
15080 On ch=1 n=63 v=58
15120 On ch=1 n=63 v=0
15120 On ch=1 n=60 v=57
15160 On ch=1 n=60 v=0
15160 On ch=1 n=66 v=50
15200 On ch=1 n=66 v=0
15200 On ch=1 n=63 v=48
15240 On ch=1 n=63 v=0
15240 On ch=1 n=69 v=56
15280 On ch=1 n=69 v=0
15280 On ch=1 n=66 v=50
15320 On ch=1 n=66 v=0
15320 On ch=1 n=72 v=57
15360 On ch=1 n=72 v=0
15361 Par ch=1 c=64 v=0
15380 Par ch=1 c=64 v=40
15381 Par ch=1 c=64 v=127
15400 On ch=1 n=61 v=34
15440 On ch=1 n=61 v=0
15480 On ch=1 n=64 v=56
15520 On ch=1 n=64 v=0
15520 On ch=1 n=61 v=39
15560 On ch=1 n=61 v=0
15560 On ch=1 n=68 v=62
15600 On ch=1 n=68 v=0
15600 On ch=1 n=64 v=46
15640 On ch=1 n=64 v=0
15640 On ch=1 n=73 v=63
15680 On ch=1 n=73 v=0
15680 On ch=1 n=68 v=46
15720 On ch=1 n=68 v=0
15720 On ch=1 n=76 v=57
15760 On ch=1 n=76 v=0
15760 On ch=1 n=73 v=26
15800 On ch=1 n=73 v=0
15800 On ch=1 n=68 v=33
15840 On ch=1 n=68 v=0
15840 On ch=1 n=61 v=45
15840 Par ch=1 c=64 v=24
15841 Par ch=1 c=64 v=0
15861 Par ch=1 c=64 v=40
15863 Par ch=1 c=64 v=127
15880 On ch=1 n=61 v=0
15880 On ch=1 n=67 v=52
15920 On ch=1 n=67 v=0
15920 On ch=1 n=64 v=53
15960 On ch=1 n=64 v=0
15960 On ch=1 n=70 v=56
16000 On ch=1 n=70 v=0
16000 On ch=1 n=67 v=35
16040 On ch=1 n=67 v=0
16040 On ch=1 n=73 v=56
16080 On ch=1 n=73 v=0
16080 On ch=1 n=70 v=44
16120 On ch=1 n=70 v=0
16120 On ch=1 n=76 v=66
16160 On ch=1 n=76 v=0
16160 On ch=1 n=73 v=42
16200 On ch=1 n=73 v=0
16200 On ch=1 n=79 v=63
16240 On ch=1 n=79 v=0
16240 On ch=1 n=76 v=40
16280 On ch=1 n=76 v=0
16280 On ch=1 n=82 v=33
16320 On ch=1 n=82 v=0
16320 On ch=1 n=66 v=29
16323 Par ch=1 c=64 v=56
16327 Par ch=1 c=64 v=0
16345 Par ch=1 c=64 v=56
16347 Par ch=1 c=64 v=127
16360 On ch=1 n=66 v=0
16360 On ch=1 n=72 v=41
16400 On ch=1 n=72 v=0
16400 On ch=1 n=69 v=45
16440 On ch=1 n=69 v=0
16440 On ch=1 n=75 v=54
16480 On ch=1 n=75 v=0
16480 On ch=1 n=72 v=33
16520 On ch=1 n=72 v=0
16520 On ch=1 n=78 v=48
16560 On ch=1 n=78 v=0
16560 On ch=1 n=75 v=48
16600 On ch=1 n=75 v=0
16600 On ch=1 n=81 v=43
16640 On ch=1 n=81 v=0
16640 On ch=1 n=78 v=45
16680 On ch=1 n=78 v=0
16680 On ch=1 n=84 v=68
16720 On ch=1 n=84 v=0
16720 On ch=1 n=81 v=40
16760 On ch=1 n=81 v=0
16760 On ch=1 n=87 v=48
16800 On ch=1 n=87 v=0
16800 On ch=1 n=84 v=57
16840 On ch=1 n=84 v=0
16840 On ch=1 n=78 v=32
16880 On ch=1 n=78 v=0
16880 On ch=1 n=81 v=28
16920 On ch=1 n=81 v=0
16920 On ch=1 n=75 v=47
16960 On ch=1 n=75 v=0
16960 On ch=1 n=78 v=39
17000 On ch=1 n=78 v=0
17000 On ch=1 n=72 v=36
17040 On ch=1 n=72 v=0
17040 On ch=1 n=75 v=55
17080 On ch=1 n=75 v=0
17080 On ch=1 n=69 v=34
17120 On ch=1 n=69 v=0
17120 On ch=1 n=72 v=33
17160 On ch=1 n=72 v=0
17160 On ch=1 n=66 v=44
17200 On ch=1 n=66 v=0
17200 On ch=1 n=69 v=26
17240 On ch=1 n=69 v=0
17240 On ch=1 n=63 v=31
17280 On ch=1 n=63 v=0
17280 On ch=1 n=66 v=49
17320 On ch=1 n=66 v=0
17320 On ch=1 n=60 v=39
17360 On ch=1 n=60 v=0
17360 On ch=1 n=63 v=25
17400 On ch=1 n=63 v=0
17400 On ch=1 n=57 v=48
17402 Par ch=1 c=64 v=104
17403 Par ch=1 c=64 v=40
17406 Par ch=1 c=64 v=0
17413 Par ch=1 c=64 v=56
17416 Par ch=1 c=64 v=104
17418 Par ch=1 c=64 v=127
17440 On ch=1 n=57 v=0
17440 On ch=1 n=60 v=33
17480 On ch=1 n=60 v=0
17520 On ch=1 n=57 v=30
17560 On ch=1 n=57 v=0
17636 Par ch=1 c=64 v=40
17637 Par ch=1 c=64 v=0
17652 Par ch=1 c=64 v=127
17720 On ch=1 n=57 v=35
17760 On ch=1 n=57 v=0
17761 Par ch=1 c=64 v=104
17762 Par ch=1 c=64 v=0
17781 Par ch=1 c=64 v=56
17783 Par ch=1 c=64 v=127
17880 On ch=1 n=57 v=62
17920 On ch=1 n=57 v=0
17998 Par ch=1 c=64 v=56
18001 Par ch=1 c=64 v=0
18017 Par ch=1 c=64 v=56
18018 Par ch=1 c=64 v=127
18080 On ch=1 n=57 v=40
18117 Par ch=1 c=64 v=0
18120 On ch=1 n=57 v=0
18132 Par ch=1 c=64 v=40
18133 Par ch=1 c=64 v=104
18136 Par ch=1 c=64 v=127
18200 On ch=1 n=57 v=32
18238 Par ch=1 c=64 v=0
18240 On ch=1 n=57 v=0
18258 Par ch=1 c=64 v=104
18261 Par ch=1 c=64 v=127
18360 On ch=1 n=57 v=82
18400 On ch=1 n=57 v=0
18477 Par ch=1 c=64 v=56
18478 Par ch=1 c=64 v=0
18495 Par ch=1 c=64 v=88
18497 Par ch=1 c=64 v=127
18560 On ch=1 n=57 v=36
18593 Par ch=1 c=64 v=40
18596 Par ch=1 c=64 v=0
18600 On ch=1 n=57 v=0
18601 Par ch=1 c=64 v=40
18603 Par ch=1 c=64 v=72
18606 Par ch=1 c=64 v=127
18680 On ch=1 n=57 v=41
18715 Par ch=1 c=64 v=104
18717 Par ch=1 c=64 v=0
18720 On ch=1 n=57 v=0
18737 Par ch=1 c=64 v=72
18738 Par ch=1 c=64 v=127
18840 On ch=1 n=57 v=54
18880 On ch=1 n=57 v=0
18952 Par ch=1 c=64 v=24
18955 Par ch=1 c=64 v=0
18972 Par ch=1 c=64 v=24
18975 Par ch=1 c=64 v=72
18977 Par ch=1 c=64 v=127
19040 On ch=1 n=61 v=44
19080 On ch=1 n=61 v=0
19160 On ch=1 n=61 v=37
19195 Par ch=1 c=64 v=88
19196 Par ch=1 c=64 v=0
19200 On ch=1 n=61 v=0
19215 Par ch=1 c=64 v=56
19217 Par ch=1 c=64 v=127
19240 On ch=1 n=57 v=36
19280 On ch=1 n=57 v=0
19280 On ch=1 n=61 v=43
19320 On ch=1 n=61 v=0
19358 On ch=1 n=57 v=28
19398 On ch=1 n=57 v=0
19400 On ch=1 n=61 v=25
19438 Par ch=1 c=64 v=104
19440 On ch=1 n=61 v=0
19441 Par ch=1 c=64 v=0
19461 Par ch=1 c=64 v=88
19462 Par ch=1 c=64 v=127
19520 On ch=1 n=60 v=34
19560 On ch=1 n=60 v=0
19640 On ch=1 n=60 v=33
19680 On ch=1 n=60 v=0
19681 Par ch=1 c=64 v=0
19701 Par ch=1 c=64 v=40
19702 Par ch=1 c=64 v=127
19760 On ch=1 n=61 v=25
19800 On ch=1 n=61 v=0
19840 On ch=1 n=61 v=33
19880 On ch=1 n=61 v=0
19880 On ch=1 n=64 v=26
19920 On ch=1 n=64 v=0
19960 On ch=1 n=61 v=32
20000 On ch=1 n=61 v=0
20000 On ch=1 n=64 v=27
20040 On ch=1 n=64 v=0
20040 On ch=1 n=68 v=44
20080 On ch=1 n=61 v=29
20120 On ch=1 n=61 v=0
20120 On ch=1 n=64 v=27
20128 On ch=1 n=68 v=60
20130 On ch=1 n=68 v=0
20158 On ch=1 n=68 v=0
20160 On ch=1 n=64 v=0
20160 On ch=1 n=68 v=58
20165 Par ch=1 c=64 v=88
20166 Par ch=1 c=64 v=0
20191 Par ch=1 c=64 v=56
20192 Par ch=1 c=64 v=127
20200 On ch=1 n=63 v=35
20240 On ch=1 n=63 v=0
20240 On ch=1 n=66 v=35
20280 On ch=1 n=66 v=0
20320 On ch=1 n=63 v=23
20360 On ch=1 n=63 v=0
20360 On ch=1 n=66 v=30
20400 On ch=1 n=66 v=0
20440 On ch=1 n=63 v=17
20480 On ch=1 n=63 v=0
20480 On ch=1 n=66 v=40
20519 On ch=1 n=68 v=0
20520 On ch=1 n=66 v=0
20520 On ch=1 n=68 v=53
20560 On ch=1 n=63 v=32
20600 On ch=1 n=63 v=0
20600 On ch=1 n=66 v=38
20610 On ch=1 n=68 v=0
20610 On ch=1 n=68 v=49
20640 On ch=1 n=68 v=0
20640 On ch=1 n=66 v=0
20640 On ch=1 n=68 v=54
20646 Par ch=1 c=64 v=104
20648 Par ch=1 c=64 v=0
20671 Par ch=1 c=64 v=127
20680 On ch=1 n=61 v=30
20720 On ch=1 n=61 v=0
20720 On ch=1 n=64 v=37
20760 On ch=1 n=64 v=0
20800 On ch=1 n=61 v=26
20840 On ch=1 n=61 v=0
20840 On ch=1 n=64 v=46
20879 On ch=1 n=68 v=0
20880 On ch=1 n=64 v=0
20880 On ch=1 n=69 v=59
20880 On ch=1 n=57 v=39
20880 Par ch=1 c=64 v=104
20882 Par ch=1 c=64 v=0
20902 Par ch=1 c=64 v=127
20920 On ch=1 n=57 v=0
20920 On ch=1 n=61 v=37
20960 On ch=1 n=61 v=0
20960 On ch=1 n=66 v=35
21000 On ch=1 n=66 v=0
21000 On ch=1 n=57 v=31
21040 On ch=1 n=57 v=0
21040 On ch=1 n=61 v=29
21080 On ch=1 n=61 v=0
21080 On ch=1 n=66 v=33
21118 Par ch=1 c=64 v=40
21119 On ch=1 n=69 v=0
21120 On ch=1 n=66 v=0
21120 On ch=1 n=68 v=54
21120 Par ch=1 c=64 v=0
21136 Par ch=1 c=64 v=72
21138 Par ch=1 c=64 v=127
21160 On ch=1 n=59 v=42
21200 On ch=1 n=59 v=0
21200 On ch=1 n=64 v=44
21240 On ch=1 n=64 v=0
21280 On ch=1 n=59 v=38
21320 On ch=1 n=59 v=0
21320 On ch=1 n=64 v=38
21356 Par ch=1 c=64 v=0
21359 On ch=1 n=68 v=0
21360 On ch=1 n=64 v=0
21360 On ch=1 n=57 v=48
21360 On ch=1 n=66 v=61
21375 Par ch=1 c=64 v=72
21376 Par ch=1 c=64 v=127
21400 On ch=1 n=57 v=0
21400 On ch=1 n=59 v=32
21440 On ch=1 n=59 v=0
21440 On ch=1 n=63 v=30
21471 On ch=1 n=57 v=35
21479 On ch=1 n=66 v=0
21480 On ch=1 n=63 v=0
21480 On ch=1 n=71 v=56
21520 On ch=1 n=57 v=0
21520 On ch=1 n=59 v=26
21560 On ch=1 n=59 v=0
21560 On ch=1 n=63 v=50
21599 On ch=1 n=71 v=0
21600 On ch=1 n=63 v=0
21600 On ch=1 n=64 v=40
21608 Par ch=1 c=64 v=40
21610 Par ch=1 c=64 v=0
21628 Par ch=1 c=64 v=56
21631 Par ch=1 c=64 v=127
21640 On ch=1 n=59 v=52
21680 On ch=1 n=59 v=0
21680 On ch=1 n=64 v=0
21680 On ch=1 n=64 v=42
21720 On ch=1 n=64 v=0
21720 On ch=1 n=59 v=52
21760 On ch=1 n=59 v=0
21760 On ch=1 n=64 v=35
21800 On ch=1 n=64 v=0
21800 On ch=1 n=68 v=35
21840 On ch=1 n=68 v=0
21840 On ch=1 n=59 v=52
21880 On ch=1 n=59 v=0
21880 On ch=1 n=64 v=32
21920 On ch=1 n=64 v=0
21920 On ch=1 n=68 v=32
21960 On ch=1 n=68 v=0
21960 On ch=1 n=71 v=63
21960 On ch=1 n=59 v=53
22000 On ch=1 n=59 v=0
22000 On ch=1 n=64 v=34
22040 On ch=1 n=64 v=0
22040 On ch=1 n=68 v=39
22050 On ch=1 n=71 v=0
22050 On ch=1 n=71 v=36
22080 On ch=1 n=71 v=0
22080 On ch=1 n=68 v=0
22080 On ch=1 n=71 v=57
22080 On ch=1 n=59 v=40
22082 Par ch=1 c=64 v=72
22083 Par ch=1 c=64 v=0
22105 Par ch=1 c=64 v=88
22106 Par ch=1 c=64 v=127
22120 On ch=1 n=59 v=0
22120 On ch=1 n=66 v=27
22160 On ch=1 n=66 v=0
22160 On ch=1 n=69 v=21
22200 On ch=1 n=69 v=0
22200 On ch=1 n=59 v=42
22240 On ch=1 n=59 v=0
22240 On ch=1 n=66 v=22
22280 On ch=1 n=66 v=0
22280 On ch=1 n=69 v=26
22320 On ch=1 n=69 v=0
22320 On ch=1 n=59 v=33
22360 On ch=1 n=59 v=0
22360 On ch=1 n=66 v=25
22400 On ch=1 n=66 v=0
22400 On ch=1 n=69 v=32
22439 On ch=1 n=71 v=0
22440 On ch=1 n=69 v=0
22440 On ch=1 n=59 v=44
22440 On ch=1 n=71 v=68
22480 On ch=1 n=59 v=0
22480 On ch=1 n=66 v=28
22520 On ch=1 n=66 v=0
22520 On ch=1 n=69 v=33
22530 On ch=1 n=71 v=0
22530 On ch=1 n=71 v=49
22558 Par ch=1 c=64 v=72
22560 On ch=1 n=71 v=0
22560 On ch=1 n=69 v=0
22560 On ch=1 n=71 v=56
22560 On ch=1 n=59 v=39
22560 Par ch=1 c=64 v=0
22580 Par ch=1 c=64 v=88
22582 Par ch=1 c=64 v=127
22598 On ch=1 n=64 v=34
22600 On ch=1 n=59 v=0
22638 On ch=1 n=64 v=0
22640 On ch=1 n=68 v=36
22680 On ch=1 n=68 v=0
22680 On ch=1 n=59 v=47
22718 On ch=1 n=64 v=40
22720 On ch=1 n=59 v=0
22758 On ch=1 n=64 v=0
22760 On ch=1 n=68 v=27
22792 Par ch=1 c=64 v=88
22793 Par ch=1 c=64 v=0
22799 On ch=1 n=71 v=0
22800 On ch=1 n=68 v=0
22800 On ch=1 n=60 v=70
22800 On ch=1 n=72 v=75
22812 Par ch=1 c=64 v=88
22815 Par ch=1 c=64 v=127
22840 On ch=1 n=60 v=0
22840 On ch=1 n=66 v=33
22880 On ch=1 n=66 v=0
22880 On ch=1 n=68 v=51
22915 Par ch=1 c=64 v=56
22917 Par ch=1 c=64 v=0
22919 On ch=1 n=72 v=0
22920 On ch=1 n=68 v=0
22920 On ch=1 n=61 v=49
22920 On ch=1 n=73 v=78
22933 Par ch=1 c=64 v=72
22935 Par ch=1 c=64 v=127
22960 On ch=1 n=64 v=52
22961 On ch=1 n=61 v=0
23000 On ch=1 n=64 v=0
23000 On ch=1 n=68 v=55
23038 Par ch=1 c=64 v=56
23039 On ch=1 n=73 v=0
23040 On ch=1 n=68 v=0
23040 On ch=1 n=63 v=65
23040 On ch=1 n=75 v=78
23040 Par ch=1 c=64 v=0
23060 Par ch=1 c=64 v=127
23080 On ch=1 n=63 v=0
23080 On ch=1 n=66 v=42
23120 On ch=1 n=66 v=0
23120 On ch=1 n=68 v=42
23160 On ch=1 n=68 v=0
23160 On ch=1 n=63 v=49
23200 On ch=1 n=63 v=0
23200 On ch=1 n=66 v=39
23240 On ch=1 n=66 v=0
23240 On ch=1 n=68 v=46
23278 Par ch=1 c=64 v=40
23279 On ch=1 n=75 v=0
23280 On ch=1 n=68 v=0
23280 On ch=1 n=64 v=59
23280 On ch=1 n=76 v=80
23280 Par ch=1 c=64 v=0
23298 Par ch=1 c=64 v=104
23300 Par ch=1 c=64 v=127
23320 On ch=1 n=64 v=0
23320 On ch=1 n=68 v=34
23360 On ch=1 n=68 v=0
23360 On ch=1 n=73 v=36
23400 On ch=1 n=73 v=0
23400 On ch=1 n=64 v=36
23440 On ch=1 n=64 v=0
23440 On ch=1 n=68 v=27
23480 On ch=1 n=68 v=0
23480 On ch=1 n=73 v=31
23519 On ch=1 n=76 v=0
23520 On ch=1 n=73 v=0
23520 On ch=1 n=62 v=37
23520 On ch=1 n=74 v=54
23520 Par ch=1 c=64 v=104
23522 Par ch=1 c=64 v=0
23540 Par ch=1 c=64 v=56
23542 Par ch=1 c=64 v=127
23560 On ch=1 n=62 v=0
23560 On ch=1 n=66 v=18
23600 On ch=1 n=66 v=0
23600 On ch=1 n=69 v=19
23640 On ch=1 n=69 v=0
23640 On ch=1 n=62 v=29
23680 On ch=1 n=62 v=0
23680 On ch=1 n=66 v=36
23720 On ch=1 n=66 v=0
23720 On ch=1 n=69 v=25
23759 On ch=1 n=74 v=0
23760 On ch=1 n=69 v=0
23760 On ch=1 n=72 v=49
23760 On ch=1 n=60 v=32
23760 Par ch=1 c=64 v=24
23762 Par ch=1 c=64 v=0
23780 Par ch=1 c=64 v=127
23800 On ch=1 n=60 v=0
23800 On ch=1 n=66 v=25
23840 On ch=1 n=66 v=0
23840 On ch=1 n=68 v=30
23880 On ch=1 n=68 v=0
23880 On ch=1 n=60 v=33
23920 On ch=1 n=60 v=0
23920 On ch=1 n=66 v=26
23960 On ch=1 n=66 v=0
23960 On ch=1 n=68 v=34
23996 Par ch=1 c=64 v=24
23998 Par ch=1 c=64 v=0
23999 On ch=1 n=72 v=0
24000 On ch=1 n=68 v=0
24000 On ch=1 n=73 v=58
24000 On ch=1 n=61 v=33
24016 Par ch=1 c=64 v=56
24018 Par ch=1 c=64 v=127
24040 On ch=1 n=61 v=0
24040 On ch=1 n=64 v=28
24080 On ch=1 n=64 v=0
24080 On ch=1 n=68 v=29
24120 On ch=1 n=68 v=0
24120 On ch=1 n=61 v=28
24160 On ch=1 n=61 v=0
24160 On ch=1 n=64 v=32
24200 On ch=1 n=64 v=0
24200 On ch=1 n=68 v=31
24240 On ch=1 n=68 v=0
24240 On ch=1 n=61 v=31
24280 On ch=1 n=61 v=0
24280 On ch=1 n=65 v=25
24320 On ch=1 n=65 v=0
24320 On ch=1 n=68 v=34
24355 Par ch=1 c=64 v=104
24357 Par ch=1 c=64 v=0
24359 On ch=1 n=73 v=0
24360 On ch=1 n=68 v=0
24360 On ch=1 n=61 v=45
24360 On ch=1 n=73 v=71
24371 Par ch=1 c=64 v=72
24373 Par ch=1 c=64 v=127
24400 On ch=1 n=61 v=0
24400 On ch=1 n=65 v=28
24440 On ch=1 n=65 v=0
24440 On ch=1 n=68 v=43
24470 On ch=1 n=61 v=38
24479 On ch=1 n=73 v=0
24480 On ch=1 n=68 v=0
24480 On ch=1 n=74 v=64
24486 Par ch=1 c=64 v=0
24502 Par ch=1 c=64 v=104
24505 Par ch=1 c=64 v=127
24519 On ch=1 n=61 v=0
24520 On ch=1 n=66 v=39
24560 On ch=1 n=66 v=0
24560 On ch=1 n=69 v=31
24597 Par ch=1 c=64 v=0
24600 On ch=1 n=69 v=0
24600 On ch=1 n=61 v=49
24613 Par ch=1 c=64 v=56
24615 Par ch=1 c=64 v=127
24640 On ch=1 n=61 v=0
24640 On ch=1 n=66 v=42
24680 On ch=1 n=66 v=0
24680 On ch=1 n=69 v=25
24713 Par ch=1 c=64 v=72
24716 Par ch=1 c=64 v=0
24720 On ch=1 n=69 v=0
24720 On ch=1 n=57 v=70
24720 On ch=1 n=61 v=57
24730 Par ch=1 c=64 v=56
24732 Par ch=1 c=64 v=127
24760 On ch=1 n=61 v=0
24760 On ch=1 n=66 v=28
24800 On ch=1 n=66 v=0
24800 On ch=1 n=69 v=41
24839 On ch=1 n=57 v=0
24839 On ch=1 n=74 v=0
24840 On ch=1 n=69 v=0
24840 On ch=1 n=61 v=44
24840 On ch=1 n=72 v=60
24841 Par ch=1 c=64 v=104
24843 Par ch=1 c=64 v=0
24858 Par ch=1 c=64 v=104
24861 Par ch=1 c=64 v=127
24880 On ch=1 n=61 v=0
24880 On ch=1 n=66 v=29
24920 On ch=1 n=66 v=0
24920 On ch=1 n=69 v=35
24959 On ch=1 n=72 v=0
24960 On ch=1 n=69 v=0
24960 On ch=1 n=73 v=46
24960 On ch=1 n=61 v=33
24965 Par ch=1 c=64 v=0
24985 Par ch=1 c=64 v=104
24986 Par ch=1 c=64 v=127
25000 On ch=1 n=61 v=0
25000 On ch=1 n=65 v=27
25040 On ch=1 n=65 v=0
25040 On ch=1 n=68 v=34
25080 On ch=1 n=68 v=0
25080 On ch=1 n=61 v=30
25120 On ch=1 n=61 v=0
25120 On ch=1 n=65 v=27
25160 On ch=1 n=65 v=0
25160 On ch=1 n=68 v=35
25200 On ch=1 n=68 v=0
25200 On ch=1 n=61 v=30
25240 On ch=1 n=61 v=0
25240 On ch=1 n=65 v=26
25280 On ch=1 n=65 v=0
25280 On ch=1 n=68 v=37
25319 On ch=1 n=73 v=0
25320 On ch=1 n=68 v=0
25320 On ch=1 n=61 v=49
25320 On ch=1 n=73 v=65
25360 On ch=1 n=61 v=0
25360 On ch=1 n=65 v=34
25400 On ch=1 n=65 v=0
25400 On ch=1 n=68 v=37
25430 On ch=1 n=61 v=44
25439 On ch=1 n=73 v=0
25440 On ch=1 n=68 v=0
25440 On ch=1 n=74 v=88
25479 On ch=1 n=61 v=0
25480 On ch=1 n=66 v=38
25520 On ch=1 n=66 v=0
25520 On ch=1 n=69 v=26
25552 Par ch=1 c=64 v=56
25555 Par ch=1 c=64 v=0
25560 On ch=1 n=69 v=0
25560 On ch=1 n=61 v=45
25565 Par ch=1 c=64 v=40
25567 Par ch=1 c=64 v=127
25600 On ch=1 n=61 v=0
25600 On ch=1 n=66 v=23
25640 On ch=1 n=66 v=0
25640 On ch=1 n=69 v=36
25673 Par ch=1 c=64 v=24
25676 Par ch=1 c=64 v=0
25680 On ch=1 n=69 v=0
25680 On ch=1 n=57 v=60
25680 On ch=1 n=61 v=59
25686 Par ch=1 c=64 v=56
25687 Par ch=1 c=64 v=127
25720 On ch=1 n=61 v=0
25720 On ch=1 n=66 v=35
25760 On ch=1 n=66 v=0
25760 On ch=1 n=69 v=46
25797 Par ch=1 c=64 v=72
25798 Par ch=1 c=64 v=0
25799 On ch=1 n=57 v=0
25799 On ch=1 n=74 v=0
25800 On ch=1 n=69 v=0
25800 On ch=1 n=61 v=36
25800 On ch=1 n=72 v=58
25811 Par ch=1 c=64 v=72
25813 Par ch=1 c=64 v=127
25840 On ch=1 n=61 v=0
25840 On ch=1 n=66 v=31
25880 On ch=1 n=66 v=0
25880 On ch=1 n=69 v=33
25919 On ch=1 n=72 v=0
25920 On ch=1 n=69 v=0
25920 On ch=1 n=73 v=46
25920 On ch=1 n=61 v=31
25922 Par ch=1 c=64 v=104
25923 Par ch=1 c=64 v=24
25926 Par ch=1 c=64 v=0
25940 Par ch=1 c=64 v=88
25942 Par ch=1 c=64 v=127
25960 On ch=1 n=61 v=0
25960 On ch=1 n=65 v=31
26000 On ch=1 n=65 v=0
26000 On ch=1 n=68 v=27
26040 On ch=1 n=68 v=0
26040 On ch=1 n=61 v=34
26080 On ch=1 n=61 v=0
26080 On ch=1 n=65 v=26
26120 On ch=1 n=65 v=0
26120 On ch=1 n=68 v=37
26152 Par ch=1 c=64 v=72
26153 Par ch=1 c=64 v=0
26159 On ch=1 n=73 v=0
26160 On ch=1 n=68 v=0
26160 On ch=1 n=61 v=18
26160 On ch=1 n=73 v=57
26172 Par ch=1 c=64 v=40
26173 Par ch=1 c=64 v=127
26200 On ch=1 n=61 v=0
26200 On ch=1 n=66 v=28
26240 On ch=1 n=66 v=0
26240 On ch=1 n=69 v=29
26280 On ch=1 n=69 v=0
26280 On ch=1 n=61 v=25
26320 On ch=1 n=61 v=0
26320 On ch=1 n=66 v=26
26360 On ch=1 n=66 v=0
26360 On ch=1 n=69 v=27
26399 On ch=1 n=73 v=0
26400 On ch=1 n=69 v=0
26400 On ch=1 n=71 v=60
26400 On ch=1 n=59 v=32
26402 Par ch=1 c=64 v=56
26403 Par ch=1 c=64 v=0
26422 Par ch=1 c=64 v=104
26423 Par ch=1 c=64 v=127
26440 On ch=1 n=59 v=0
26440 On ch=1 n=66 v=25
26480 On ch=1 n=66 v=0
26480 On ch=1 n=69 v=24
26520 On ch=1 n=69 v=0
26520 On ch=1 n=59 v=45
26560 On ch=1 n=59 v=0
26560 On ch=1 n=66 v=22
26600 On ch=1 n=66 v=0
26600 On ch=1 n=69 v=33
26640 On ch=1 n=69 v=0
26640 On ch=1 n=59 v=32
26680 On ch=1 n=59 v=0
26680 On ch=1 n=66 v=23
26720 On ch=1 n=66 v=0
26720 On ch=1 n=69 v=39
26757 Par ch=1 c=64 v=88
26758 Par ch=1 c=64 v=0
26759 On ch=1 n=71 v=0
26760 On ch=1 n=69 v=0
26760 On ch=1 n=59 v=37
26760 On ch=1 n=71 v=55
26775 Par ch=1 c=64 v=40
26777 Par ch=1 c=64 v=104
26778 Par ch=1 c=64 v=127
26800 On ch=1 n=59 v=0
26800 On ch=1 n=64 v=42
26840 On ch=1 n=64 v=0
26840 On ch=1 n=68 v=44
26876 Par ch=1 c=64 v=0
26879 On ch=1 n=71 v=0
26880 On ch=1 n=68 v=0
26880 On ch=1 n=57 v=51
26880 On ch=1 n=69 v=60
26892 Par ch=1 c=64 v=56
26893 Par ch=1 c=64 v=127
26920 On ch=1 n=57 v=0
26920 On ch=1 n=64 v=33
26960 On ch=1 n=64 v=0
26960 On ch=1 n=68 v=33
26995 Par ch=1 c=64 v=72
26996 Par ch=1 c=64 v=0
26999 On ch=1 n=69 v=0
27000 On ch=1 n=68 v=0
27000 On ch=1 n=57 v=40
27000 On ch=1 n=69 v=57
27008 Par ch=1 c=64 v=24
27011 Par ch=1 c=64 v=88
27012 Par ch=1 c=64 v=127
27040 On ch=1 n=57 v=0
27040 On ch=1 n=63 v=44
27080 On ch=1 n=63 v=0
27080 On ch=1 n=66 v=40
27113 Par ch=1 c=64 v=72
27116 Par ch=1 c=64 v=0
27119 On ch=1 n=69 v=0
27120 On ch=1 n=66 v=0
27120 On ch=1 n=68 v=68
27133 Par ch=1 c=64 v=72
27136 Par ch=1 c=64 v=127
27160 On ch=1 n=63 v=34
27200 On ch=1 n=63 v=0
27200 On ch=1 n=66 v=37
27238 Par ch=1 c=64 v=0
27239 On ch=1 n=68 v=0
27240 On ch=1 n=66 v=0
27240 On ch=1 n=68 v=57
27255 Par ch=1 c=64 v=56
27257 Par ch=1 c=64 v=127
27280 On ch=1 n=61 v=38
27320 On ch=1 n=61 v=0
27320 On ch=1 n=64 v=39
27359 On ch=1 n=68 v=0
27360 On ch=1 n=64 v=0
27360 On ch=1 n=66 v=56
27362 Par ch=1 c=64 v=0
27380 Par ch=1 c=64 v=40
27382 Par ch=1 c=64 v=127
27400 On ch=1 n=61 v=33
27440 On ch=1 n=61 v=0
27440 On ch=1 n=63 v=34
27480 On ch=1 n=63 v=0
27520 On ch=1 n=61 v=37
27560 On ch=1 n=61 v=0
27560 On ch=1 n=63 v=36
27597 Par ch=1 c=64 v=56
27599 On ch=1 n=66 v=0
27600 On ch=1 n=63 v=0
27600 On ch=1 n=68 v=67
27600 Par ch=1 c=64 v=0
27617 Par ch=1 c=64 v=127
27640 On ch=1 n=61 v=34
27680 On ch=1 n=61 v=0
27680 On ch=1 n=63 v=33
27719 On ch=1 n=68 v=0
27720 On ch=1 n=63 v=0
27720 On ch=1 n=69 v=70
27720 On ch=1 n=57 v=56
27725 Par ch=1 c=64 v=0
27726 Par ch=1 c=64 v=88
27741 Par ch=1 c=64 v=40
27743 Par ch=1 c=64 v=127
27760 On ch=1 n=57 v=0
27760 On ch=1 n=61 v=35
27800 On ch=1 n=61 v=0
27800 On ch=1 n=63 v=39
27837 Par ch=1 c=64 v=104
27839 On ch=1 n=69 v=0
27840 On ch=1 n=63 v=0
27840 On ch=1 n=68 v=61
27840 Par ch=1 c=64 v=0
27857 Par ch=1 c=64 v=104
27860 Par ch=1 c=64 v=127
27880 On ch=1 n=61 v=31
27920 On ch=1 n=61 v=0
27920 On ch=1 n=64 v=31
27960 On ch=1 n=64 v=0
28000 On ch=1 n=61 v=26
28040 On ch=1 n=61 v=0
28040 On ch=1 n=64 v=36
28076 Par ch=1 c=64 v=24
28079 On ch=1 n=68 v=0
28080 On ch=1 n=64 v=0
28080 On ch=1 n=68 v=44
28080 Par ch=1 c=64 v=0
28096 Par ch=1 c=64 v=88
28097 Par ch=1 c=64 v=127
28120 On ch=1 n=60 v=22
28160 On ch=1 n=60 v=0
28160 On ch=1 n=63 v=33
28199 On ch=1 n=68 v=0
28200 On ch=1 n=63 v=0
28240 On ch=1 n=60 v=27
28280 On ch=1 n=60 v=0
28280 On ch=1 n=63 v=43
28313 Par ch=1 c=64 v=88
28316 Par ch=1 c=64 v=0
28320 On ch=1 n=63 v=0
28320 On ch=1 n=61 v=40
28333 Par ch=1 c=64 v=88
28336 Par ch=1 c=64 v=127
28400 On ch=1 n=61 v=42
28439 On ch=1 n=61 v=0
28440 On ch=1 n=61 v=0
28480 On ch=1 n=61 v=28
28520 On ch=1 n=61 v=0
28520 On ch=1 n=64 v=38
28560 On ch=1 n=64 v=0
28600 On ch=1 n=61 v=32
28640 On ch=1 n=61 v=0
28640 On ch=1 n=64 v=38
28680 On ch=1 n=64 v=0
28720 On ch=1 n=61 v=37
28760 On ch=1 n=61 v=0
28760 On ch=1 n=64 v=36
28800 On ch=1 n=64 v=0
28803 Par ch=1 c=64 v=88
28805 Par ch=1 c=64 v=0
28826 Par ch=1 c=64 v=88
28827 Par ch=1 c=64 v=127
28840 On ch=1 n=63 v=38
28880 On ch=1 n=63 v=0
28880 On ch=1 n=66 v=36
28920 On ch=1 n=66 v=0
28960 On ch=1 n=63 v=28
29000 On ch=1 n=63 v=0
29000 On ch=1 n=66 v=30
29040 On ch=1 n=66 v=0
29080 On ch=1 n=63 v=34
29120 On ch=1 n=63 v=0
29120 On ch=1 n=66 v=30
29160 On ch=1 n=66 v=0
29200 On ch=1 n=63 v=34
29240 On ch=1 n=63 v=0
29240 On ch=1 n=66 v=39
29280 On ch=1 n=66 v=0
29281 Par ch=1 c=64 v=40
29283 Par ch=1 c=64 v=0
29302 Par ch=1 c=64 v=127
29320 On ch=1 n=64 v=51
29360 On ch=1 n=64 v=0
29360 On ch=1 n=61 v=33
29400 On ch=1 n=61 v=0
29400 On ch=1 n=68 v=65
29440 On ch=1 n=68 v=0
29440 On ch=1 n=64 v=42
29480 On ch=1 n=64 v=0
29480 On ch=1 n=73 v=61
29520 On ch=1 n=73 v=0
29520 On ch=1 n=68 v=53
29560 On ch=1 n=68 v=0
29560 On ch=1 n=76 v=74
29600 On ch=1 n=76 v=0
29600 On ch=1 n=73 v=55
29626 Par ch=1 c=64 v=104
29627 Par ch=1 c=64 v=0
29640 On ch=1 n=73 v=0
29640 On ch=1 n=80 v=73
29646 Par ch=1 c=64 v=56
29648 Par ch=1 c=64 v=127
29680 On ch=1 n=80 v=0
29680 On ch=1 n=76 v=52
29720 On ch=1 n=76 v=0
29720 On ch=1 n=73 v=56
29760 On ch=1 n=73 v=0
29760 On ch=1 n=72 v=66
29761 Par ch=1 c=64 v=88
29763 Par ch=1 c=64 v=0
29781 Par ch=1 c=64 v=127
29800 On ch=1 n=72 v=0
29800 On ch=1 n=75 v=52
29840 On ch=1 n=75 v=0
29840 On ch=1 n=69 v=46
29880 On ch=1 n=69 v=0
29880 On ch=1 n=72 v=64
29920 On ch=1 n=72 v=0
29920 On ch=1 n=66 v=40
29960 On ch=1 n=66 v=0
29960 On ch=1 n=69 v=39
30000 On ch=1 n=69 v=0
30000 On ch=1 n=63 v=57
30040 On ch=1 n=63 v=0
30040 On ch=1 n=66 v=45
30080 On ch=1 n=66 v=0
30080 On ch=1 n=57 v=52
30115 Par ch=1 c=64 v=72
30116 Par ch=1 c=64 v=0
30120 On ch=1 n=57 v=0
30120 On ch=1 n=60 v=67
30130 Par ch=1 c=64 v=72
30132 Par ch=1 c=64 v=127
30160 On ch=1 n=60 v=0
30240 On ch=1 n=61 v=58
30240 Par ch=1 c=64 v=0
30261 Par ch=1 c=64 v=127
30280 On ch=1 n=61 v=0
30280 On ch=1 n=64 v=61
30320 On ch=1 n=64 v=0
30320 On ch=1 n=61 v=45
30360 On ch=1 n=61 v=0
30360 On ch=1 n=68 v=62
30400 On ch=1 n=68 v=0
30400 On ch=1 n=64 v=53
30440 On ch=1 n=64 v=0
30440 On ch=1 n=73 v=67
30480 On ch=1 n=73 v=0
30480 On ch=1 n=68 v=42
30520 On ch=1 n=68 v=0
30520 On ch=1 n=76 v=74
30560 On ch=1 n=76 v=0
30560 On ch=1 n=73 v=48
30586 Par ch=1 c=64 v=104
30588 Par ch=1 c=64 v=24
30590 Par ch=1 c=64 v=0
30600 On ch=1 n=73 v=0
30600 On ch=1 n=80 v=72
30610 Par ch=1 c=64 v=88
30612 Par ch=1 c=64 v=127
30640 On ch=1 n=80 v=0
30640 On ch=1 n=76 v=62
30680 On ch=1 n=76 v=0
30680 On ch=1 n=73 v=56
30720 On ch=1 n=73 v=0
30720 On ch=1 n=72 v=64
30720 Par ch=1 c=64 v=24
30721 Par ch=1 c=64 v=0
30737 Par ch=1 c=64 v=104
30740 Par ch=1 c=64 v=127
30760 On ch=1 n=72 v=0
30760 On ch=1 n=75 v=46
30800 On ch=1 n=75 v=0
30800 On ch=1 n=69 v=44
30840 On ch=1 n=69 v=0
30840 On ch=1 n=72 v=55
30880 On ch=1 n=72 v=0
30880 On ch=1 n=66 v=50
30920 On ch=1 n=66 v=0
30920 On ch=1 n=69 v=49
30960 On ch=1 n=69 v=0
30960 On ch=1 n=63 v=62
31000 On ch=1 n=63 v=0
31000 On ch=1 n=66 v=49
31040 On ch=1 n=66 v=0
31040 On ch=1 n=57 v=62
31068 Par ch=1 c=64 v=40
31070 Par ch=1 c=64 v=0
31080 On ch=1 n=57 v=0
31080 On ch=1 n=60 v=63
31085 Par ch=1 c=64 v=56
31086 Par ch=1 c=64 v=127
31120 On ch=1 n=60 v=0
31198 Par ch=1 c=64 v=24
31200 On ch=1 n=61 v=57
31201 Par ch=1 c=64 v=0
31220 Par ch=1 c=64 v=127
31280 On ch=1 n=61 v=51
31319 On ch=1 n=61 v=0
31320 On ch=1 n=61 v=0
31320 On ch=1 n=64 v=49
31360 On ch=1 n=64 v=0
31360 On ch=1 n=61 v=37
31400 On ch=1 n=61 v=0
31560 On ch=1 n=61 v=49
31600 On ch=1 n=61 v=0
32161 Par ch=1 c=64 v=88
32167 Par ch=1 c=64 v=127
32400 On ch=1 n=61 v=49
32639 On ch=1 n=61 v=0
32640 On ch=1 n=61 v=33
32877 Par ch=1 c=64 v=72
32878 Par ch=1 c=64 v=24
32881 Par ch=1 c=64 v=0
33119 On ch=1 n=61 v=0
33119 Meta TrkEnd
TrkEnd
MTrk
0 Meta 0x21 00
0 Meta TrkName "Sonata Quasi Una Fantasia "
0 Par ch=1 c=0 v=0
0 PrCh ch=1 p=0
0 On ch=1 n=49 v=29
0 On ch=1 n=37 v=37
0 On ch=1 n=56 v=46
40 On ch=1 n=56 v=0
120 On ch=1 n=56 v=38
160 On ch=1 n=56 v=0
240 On ch=1 n=56 v=32
280 On ch=1 n=56 v=0
360 On ch=1 n=56 v=33
400 On ch=1 n=56 v=0
479 On ch=1 n=37 v=0
479 On ch=1 n=49 v=0
480 On ch=1 n=47 v=38
480 On ch=1 n=35 v=42
480 On ch=1 n=56 v=25
520 On ch=1 n=56 v=0
600 On ch=1 n=56 v=30
640 On ch=1 n=56 v=0
720 On ch=1 n=56 v=27
760 On ch=1 n=56 v=0
840 On ch=1 n=56 v=37
880 On ch=1 n=56 v=0
959 On ch=1 n=35 v=0
959 On ch=1 n=47 v=0
960 On ch=1 n=45 v=39
960 On ch=1 n=33 v=37
1199 On ch=1 n=33 v=0
1199 On ch=1 n=45 v=0
1200 On ch=1 n=42 v=29
1200 On ch=1 n=30 v=27
1439 On ch=1 n=30 v=0
1439 On ch=1 n=42 v=0
1440 On ch=1 n=44 v=31
1440 On ch=1 n=56 v=44
1440 On ch=1 n=32 v=37
1480 On ch=1 n=56 v=0
1560 On ch=1 n=56 v=44
1600 On ch=1 n=56 v=0
1679 On ch=1 n=32 v=0
1679 On ch=1 n=44 v=0
1680 On ch=1 n=32 v=39
1680 On ch=1 n=44 v=32
1680 On ch=1 n=56 v=37
1720 On ch=1 n=56 v=0
1799 On ch=1 n=44 v=0
1799 On ch=1 n=32 v=0
1800 On ch=1 n=54 v=39
1840 On ch=1 n=54 v=0
1920 On ch=1 n=52 v=36
1920 On ch=1 n=44 v=33
1920 On ch=1 n=37 v=25
1920 On ch=1 n=49 v=23
1960 On ch=1 n=52 v=0
1960 On ch=1 n=56 v=27
2000 On ch=1 n=56 v=0
2040 On ch=1 n=56 v=36
2080 On ch=1 n=56 v=0
2160 On ch=1 n=56 v=42
2200 On ch=1 n=56 v=0
2280 On ch=1 n=56 v=46
2320 On ch=1 n=56 v=0
2399 On ch=1 n=44 v=0
2399 On ch=1 n=37 v=0
2399 On ch=1 n=49 v=0
2400 On ch=1 n=48 v=28
2400 On ch=1 n=44 v=32
2400 On ch=1 n=56 v=43
2400 On ch=1 n=36 v=40
2440 On ch=1 n=56 v=0
2520 On ch=1 n=56 v=32
2560 On ch=1 n=56 v=0
2640 On ch=1 n=56 v=27
2680 On ch=1 n=56 v=0
2760 On ch=1 n=56 v=32
2800 On ch=1 n=56 v=0
2879 On ch=1 n=36 v=0
2879 On ch=1 n=44 v=0
2879 On ch=1 n=48 v=0
2880 On ch=1 n=56 v=54
2880 On ch=1 n=49 v=34
2880 On ch=1 n=37 v=37
2920 On ch=1 n=56 v=0
3000 On ch=1 n=56 v=23
3040 On ch=1 n=56 v=0
3119 On ch=1 n=37 v=0
3119 On ch=1 n=49 v=0
3120 On ch=1 n=42 v=28
3120 On ch=1 n=30 v=33
3359 On ch=1 n=30 v=0
3359 On ch=1 n=42 v=0
3360 On ch=1 n=47 v=24
3360 On ch=1 n=35 v=37
3360 On ch=1 n=56 v=25
3400 On ch=1 n=56 v=0
3480 On ch=1 n=56 v=25
3520 On ch=1 n=56 v=0
3599 On ch=1 n=35 v=0
3599 On ch=1 n=47 v=0
3600 On ch=1 n=35 v=25
3600 On ch=1 n=47 v=24
3839 On ch=1 n=47 v=0
3839 On ch=1 n=35 v=0
3840 On ch=1 n=40 v=36
3840 On ch=1 n=52 v=21
3840 On ch=1 n=56 v=25
3880 On ch=1 n=56 v=0
3960 On ch=1 n=56 v=22
4000 On ch=1 n=56 v=0
4080 On ch=1 n=56 v=25
4120 On ch=1 n=56 v=0
4200 On ch=1 n=56 v=27
4240 On ch=1 n=56 v=0
4319 On ch=1 n=52 v=0
4319 On ch=1 n=40 v=0
4320 On ch=1 n=40 v=36
4320 On ch=1 n=52 v=33
4320 On ch=1 n=55 v=36
4360 On ch=1 n=55 v=0
4440 On ch=1 n=55 v=34
4480 On ch=1 n=55 v=0
4560 On ch=1 n=55 v=29
4600 On ch=1 n=55 v=0
4680 On ch=1 n=55 v=41
4720 On ch=1 n=55 v=0
4799 On ch=1 n=52 v=0
4799 On ch=1 n=40 v=0
4800 On ch=1 n=50 v=19
4800 On ch=1 n=55 v=26
4800 On ch=1 n=38 v=25
4840 On ch=1 n=55 v=0
4920 On ch=1 n=55 v=25
4960 On ch=1 n=55 v=0
5040 On ch=1 n=55 v=26
5080 On ch=1 n=55 v=0
5160 On ch=1 n=55 v=34
5200 On ch=1 n=55 v=0
5279 On ch=1 n=38 v=0
5279 On ch=1 n=50 v=0
5280 On ch=1 n=36 v=32
5280 On ch=1 n=48 v=40
5280 On ch=1 n=55 v=40
5320 On ch=1 n=55 v=0
5399 On ch=1 n=48 v=0
5399 On ch=1 n=36 v=0
5400 On ch=1 n=47 v=40
5400 On ch=1 n=55 v=40
5400 On ch=1 n=35 v=46
5440 On ch=1 n=55 v=0
5519 On ch=1 n=35 v=0
5519 On ch=1 n=47 v=0
5520 On ch=1 n=55 v=52
5520 On ch=1 n=46 v=38
5520 On ch=1 n=34 v=37
5560 On ch=1 n=55 v=0
5640 On ch=1 n=54 v=47
5680 On ch=1 n=54 v=0
5759 On ch=1 n=34 v=0
5759 On ch=1 n=46 v=0
5760 On ch=1 n=35 v=34
5760 On ch=1 n=54 v=32
5760 On ch=1 n=47 v=40
5800 On ch=1 n=54 v=0
5880 On ch=1 n=54 v=30
5920 On ch=1 n=54 v=0
5999 On ch=1 n=47 v=0
5999 On ch=1 n=35 v=0
6000 On ch=1 n=55 v=48
6000 On ch=1 n=40 v=43
6040 On ch=1 n=55 v=0
6119 On ch=1 n=40 v=0
6120 On ch=1 n=43 v=44
6120 On ch=1 n=52 v=47
6160 On ch=1 n=43 v=0
6239 On ch=1 n=52 v=0
6240 On ch=1 n=54 v=39
6240 On ch=1 n=42 v=34
6280 On ch=1 n=54 v=0
6360 On ch=1 n=54 v=30
6479 On ch=1 n=54 v=0
6479 On ch=1 n=42 v=0
6480 On ch=1 n=42 v=34
6480 On ch=1 n=54 v=31
6480 On ch=1 n=30 v=34
6520 On ch=1 n=54 v=0
6600 On ch=1 n=54 v=27
6640 On ch=1 n=54 v=0
6719 On ch=1 n=30 v=0
6719 On ch=1 n=42 v=0
6720 On ch=1 n=47 v=40
6720 On ch=1 n=35 v=42
7319 On ch=1 n=35 v=0
7319 On ch=1 n=47 v=0
7320 On ch=1 n=40 v=52
7320 On ch=1 n=52 v=53
7439 On ch=1 n=52 v=0
7439 On ch=1 n=40 v=0
7440 On ch=1 n=55 v=81
7440 On ch=1 n=43 v=77
7559 On ch=1 n=43 v=0
7559 On ch=1 n=55 v=0
7560 On ch=1 n=52 v=51
7560 On ch=1 n=40 v=34
7679 On ch=1 n=40 v=0
7679 On ch=1 n=52 v=0
7680 On ch=1 n=47 v=29
7680 On ch=1 n=35 v=33
8200 On ch=1 n=35 v=0
8200 On ch=1 n=47 v=0
8280 On ch=1 n=52 v=46
8280 On ch=1 n=40 v=48
8399 On ch=1 n=40 v=0
8399 On ch=1 n=52 v=0
8400 On ch=1 n=55 v=74
8400 On ch=1 n=43 v=68
8519 On ch=1 n=43 v=0
8519 On ch=1 n=55 v=0
8520 On ch=1 n=52 v=47
8520 On ch=1 n=40 v=34
8639 On ch=1 n=40 v=0
8639 On ch=1 n=52 v=0
8640 On ch=1 n=35 v=53
8640 On ch=1 n=47 v=31
8879 On ch=1 n=47 v=0
8879 On ch=1 n=35 v=0
8880 On ch=1 n=44 v=36
8880 On ch=1 n=32 v=32
9119 On ch=1 n=32 v=0
9119 On ch=1 n=44 v=0
9120 On ch=1 n=41 v=34
9120 On ch=1 n=29 v=39
9359 On ch=1 n=29 v=0
9359 On ch=1 n=41 v=0
9360 On ch=1 n=42 v=38
9360 On ch=1 n=30 v=28
9599 On ch=1 n=30 v=0
9599 On ch=1 n=42 v=0
9600 On ch=1 n=35 v=38
9600 On ch=1 n=55 v=48
9600 On ch=1 n=47 v=51
9640 On ch=1 n=55 v=0
9720 On ch=1 n=55 v=48
9760 On ch=1 n=55 v=0
9839 On ch=1 n=47 v=0
9839 On ch=1 n=35 v=0
9840 On ch=1 n=54 v=37
9840 On ch=1 n=36 v=36
9840 On ch=1 n=48 v=49
9880 On ch=1 n=54 v=0
9960 On ch=1 n=54 v=26
10000 On ch=1 n=54 v=0
10079 On ch=1 n=48 v=0
10079 On ch=1 n=36 v=0
10080 On ch=1 n=49 v=28
10080 On ch=1 n=37 v=29
10120 On ch=1 n=49 v=0
10120 On ch=1 n=54 v=18
10160 On ch=1 n=54 v=0
10200 On ch=1 n=49 v=34
10240 On ch=1 n=49 v=0
10240 On ch=1 n=54 v=29
10280 On ch=1 n=54 v=0
10319 On ch=1 n=37 v=0
10320 On ch=1 n=49 v=25
10320 On ch=1 n=37 v=37
10360 On ch=1 n=49 v=0
10360 On ch=1 n=54 v=25
10400 On ch=1 n=54 v=0
10400 On ch=1 n=56 v=30
10439 On ch=1 n=37 v=0
10440 On ch=1 n=56 v=0
10440 On ch=1 n=49 v=23
10440 On ch=1 n=37 v=29
10480 On ch=1 n=37 v=0
10480 On ch=1 n=49 v=0
10480 On ch=1 n=53 v=31
10520 On ch=1 n=53 v=0
10520 On ch=1 n=56 v=40
10560 On ch=1 n=56 v=0
10560 On ch=1 n=54 v=36
10560 On ch=1 n=30 v=39
10560 On ch=1 n=37 v=23
10560 On ch=1 n=42 v=26
10600 On ch=1 n=54 v=0
11039 On ch=1 n=30 v=0
11039 On ch=1 n=37 v=0
11039 On ch=1 n=42 v=0
11040 On ch=1 n=53 v=34
11040 On ch=1 n=41 v=29
11040 On ch=1 n=49 v=27
11519 On ch=1 n=49 v=0
11519 On ch=1 n=41 v=0
11519 On ch=1 n=53 v=0
11520 On ch=1 n=42 v=31
11520 On ch=1 n=54 v=22
11759 On ch=1 n=54 v=0
11759 On ch=1 n=42 v=0
11760 On ch=1 n=39 v=56
11760 On ch=1 n=51 v=51
11879 On ch=1 n=51 v=0
11879 On ch=1 n=39 v=0
11880 On ch=1 n=49 v=62
11880 On ch=1 n=37 v=50
11999 On ch=1 n=37 v=0
11999 On ch=1 n=49 v=0
12000 On ch=1 n=36 v=51
12000 On ch=1 n=48 v=51
12000 On ch=1 n=44 v=45
12359 On ch=1 n=44 v=0
12359 On ch=1 n=48 v=0
12359 On ch=1 n=36 v=0
12360 On ch=1 n=44 v=37
12360 On ch=1 n=48 v=56
12360 On ch=1 n=36 v=57
12479 On ch=1 n=36 v=0
12479 On ch=1 n=48 v=0
12479 On ch=1 n=44 v=0
12480 On ch=1 n=49 v=43
12480 On ch=1 n=44 v=46
12480 On ch=1 n=37 v=28
12719 On ch=1 n=37 v=0
12719 On ch=1 n=44 v=0
12719 On ch=1 n=49 v=0
12720 On ch=1 n=42 v=27
12720 On ch=1 n=30 v=33
12839 On ch=1 n=30 v=0
12839 On ch=1 n=42 v=0
12840 On ch=1 n=43 v=46
12840 On ch=1 n=31 v=34
12959 On ch=1 n=31 v=0
12959 On ch=1 n=43 v=0
12960 On ch=1 n=32 v=38
12960 On ch=1 n=44 v=27
13439 On ch=1 n=44 v=0
13439 On ch=1 n=32 v=0
13440 On ch=1 n=44 v=32
13440 On ch=1 n=32 v=39
13480 On ch=1 n=48 v=42
13520 On ch=1 n=48 v=0
13520 On ch=1 n=51 v=38
13560 On ch=1 n=51 v=0
13560 On ch=1 n=56 v=65
13600 On ch=1 n=48 v=46
13640 On ch=1 n=48 v=0
13640 On ch=1 n=51 v=56
13679 On ch=1 n=56 v=0
13680 On ch=1 n=51 v=0
13718 On ch=1 n=48 v=58
13758 On ch=1 n=48 v=0
13760 On ch=1 n=51 v=43
13800 On ch=1 n=51 v=0
13800 On ch=1 n=54 v=50
13840 On ch=1 n=48 v=48
13880 On ch=1 n=48 v=0
13880 On ch=1 n=51 v=35
13919 On ch=1 n=44 v=0
13919 On ch=1 n=54 v=0
13919 On ch=1 n=32 v=0
13920 On ch=1 n=51 v=0
13920 On ch=1 n=32 v=39
13920 On ch=1 n=44 v=37
13920 On ch=1 n=52 v=54
13960 On ch=1 n=52 v=0
14399 On ch=1 n=44 v=0
14399 On ch=1 n=32 v=0
14400 On ch=1 n=44 v=38
14400 On ch=1 n=32 v=42
14440 On ch=1 n=52 v=34
14480 On ch=1 n=52 v=0
14480 On ch=1 n=56 v=30
14520 On ch=1 n=56 v=0
14560 On ch=1 n=52 v=44
14600 On ch=1 n=52 v=0
14600 On ch=1 n=56 v=58
14640 On ch=1 n=56 v=0
14680 On ch=1 n=52 v=37
14720 On ch=1 n=52 v=0
14720 On ch=1 n=56 v=39
14760 On ch=1 n=56 v=0
14800 On ch=1 n=52 v=29
14840 On ch=1 n=52 v=0
14840 On ch=1 n=56 v=32
14879 On ch=1 n=32 v=0
14879 On ch=1 n=44 v=0
14880 On ch=1 n=56 v=0
14880 On ch=1 n=51 v=45
14880 On ch=1 n=32 v=29
14880 On ch=1 n=44 v=25
14920 On ch=1 n=51 v=0
14960 On ch=1 n=54 v=49
15000 On ch=1 n=54 v=0
15359 On ch=1 n=44 v=0
15359 On ch=1 n=32 v=0
15360 On ch=1 n=44 v=33
15360 On ch=1 n=52 v=48
15360 On ch=1 n=32 v=36
15400 On ch=1 n=52 v=0
15440 On ch=1 n=56 v=40
15480 On ch=1 n=56 v=0
15839 On ch=1 n=32 v=0
15839 On ch=1 n=44 v=0
15840 On ch=1 n=32 v=40
15840 On ch=1 n=44 v=27
16319 On ch=1 n=44 v=0
16319 On ch=1 n=32 v=0
16320 On ch=1 n=32 v=32
16320 On ch=1 n=44 v=34
17480 On ch=1 n=54 v=43
17520 On ch=1 n=54 v=0
17560 On ch=1 n=51 v=69
17600 On ch=1 n=54 v=46
17640 On ch=1 n=54 v=0
17640 On ch=1 n=51 v=0
17640 On ch=1 n=49 v=61
17680 On ch=1 n=54 v=40
17720 On ch=1 n=54 v=0
17720 On ch=1 n=49 v=0
17759 On ch=1 n=44 v=0
17759 On ch=1 n=32 v=0
17760 On ch=1 n=44 v=32
17760 On ch=1 n=32 v=35
17760 On ch=1 n=48 v=44
17800 On ch=1 n=54 v=35
17840 On ch=1 n=54 v=0
17840 On ch=1 n=56 v=44
17880 On ch=1 n=56 v=0
17920 On ch=1 n=56 v=38
17960 On ch=1 n=56 v=0
17960 On ch=1 n=54 v=48
17999 On ch=1 n=48 v=0
18000 On ch=1 n=54 v=0
18000 On ch=1 n=51 v=71
18040 On ch=1 n=54 v=38
18080 On ch=1 n=54 v=0
18119 On ch=1 n=51 v=0
18120 On ch=1 n=49 v=68
18160 On ch=1 n=54 v=36
18200 On ch=1 n=54 v=0
18239 On ch=1 n=44 v=0
18239 On ch=1 n=32 v=0
18239 On ch=1 n=49 v=0
18240 On ch=1 n=32 v=37
18240 On ch=1 n=48 v=52
18240 On ch=1 n=44 v=32
18280 On ch=1 n=54 v=34
18320 On ch=1 n=54 v=0
18320 On ch=1 n=56 v=63
18360 On ch=1 n=56 v=0
18400 On ch=1 n=56 v=56
18440 On ch=1 n=56 v=0
18440 On ch=1 n=54 v=53
18479 On ch=1 n=48 v=0
18480 On ch=1 n=54 v=0
18480 On ch=1 n=50 v=72
18520 On ch=1 n=54 v=45
18560 On ch=1 n=54 v=0
18599 On ch=1 n=50 v=0
18600 On ch=1 n=49 v=64
18640 On ch=1 n=54 v=39
18680 On ch=1 n=54 v=0
18719 On ch=1 n=32 v=0
18719 On ch=1 n=44 v=0
18719 On ch=1 n=49 v=0
18720 On ch=1 n=44 v=31
18720 On ch=1 n=32 v=39
18720 On ch=1 n=48 v=57
18760 On ch=1 n=54 v=25
18800 On ch=1 n=54 v=0
18800 On ch=1 n=56 v=53
18840 On ch=1 n=56 v=0
18880 On ch=1 n=56 v=46
18920 On ch=1 n=56 v=0
18920 On ch=1 n=54 v=50
18959 On ch=1 n=44 v=0
18959 On ch=1 n=48 v=0
18959 On ch=1 n=32 v=0
18960 On ch=1 n=54 v=0
18960 On ch=1 n=45 v=38
18960 On ch=1 n=33 v=38
18960 On ch=1 n=49 v=37
19000 On ch=1 n=52 v=24
19040 On ch=1 n=52 v=0
19079 On ch=1 n=49 v=0
19080 On ch=1 n=49 v=32
19120 On ch=1 n=49 v=0
19120 On ch=1 n=52 v=34
19160 On ch=1 n=52 v=0
19199 On ch=1 n=33 v=0
19199 On ch=1 n=45 v=0
19200 On ch=1 n=30 v=25
19200 On ch=1 n=42 v=27
19200 On ch=1 n=51 v=40
19240 On ch=1 n=51 v=0
19320 On ch=1 n=51 v=43
19360 On ch=1 n=51 v=0
19439 On ch=1 n=42 v=0
19439 On ch=1 n=30 v=0
19440 On ch=1 n=32 v=33
19440 On ch=1 n=44 v=33
19440 On ch=1 n=51 v=45
19480 On ch=1 n=51 v=0
19480 On ch=1 n=56 v=45
19520 On ch=1 n=56 v=0
19560 On ch=1 n=51 v=34
19600 On ch=1 n=51 v=0
19600 On ch=1 n=54 v=38
19640 On ch=1 n=54 v=0
19679 On ch=1 n=44 v=0
19679 On ch=1 n=32 v=0
19680 On ch=1 n=49 v=34
19680 On ch=1 n=52 v=45
19680 On ch=1 n=44 v=37
19680 On ch=1 n=37 v=35
19720 On ch=1 n=52 v=0
19720 On ch=1 n=56 v=27
19760 On ch=1 n=56 v=0
19800 On ch=1 n=56 v=45
19840 On ch=1 n=56 v=0
19920 On ch=1 n=56 v=30
19960 On ch=1 n=56 v=0
20040 On ch=1 n=56 v=25
20080 On ch=1 n=56 v=0
20159 On ch=1 n=49 v=0
20159 On ch=1 n=44 v=0
20159 On ch=1 n=37 v=0
20160 On ch=1 n=36 v=26
20160 On ch=1 n=48 v=24
20160 On ch=1 n=56 v=46
20160 On ch=1 n=44 v=20
20200 On ch=1 n=56 v=0
20280 On ch=1 n=56 v=27
20320 On ch=1 n=56 v=0
20400 On ch=1 n=56 v=25
20440 On ch=1 n=56 v=0
20520 On ch=1 n=56 v=40
20560 On ch=1 n=56 v=0
20639 On ch=1 n=44 v=0
20639 On ch=1 n=48 v=0
20639 On ch=1 n=36 v=0
20640 On ch=1 n=37 v=20
20640 On ch=1 n=56 v=27
20640 On ch=1 n=49 v=25
20680 On ch=1 n=56 v=0
20760 On ch=1 n=56 v=46
20800 On ch=1 n=56 v=0
20879 On ch=1 n=49 v=0
20879 On ch=1 n=37 v=0
20880 On ch=1 n=42 v=30
20880 On ch=1 n=30 v=35
21119 On ch=1 n=30 v=0
21119 On ch=1 n=42 v=0
21120 On ch=1 n=47 v=35
21120 On ch=1 n=56 v=31
21120 On ch=1 n=35 v=37
21160 On ch=1 n=56 v=0
21240 On ch=1 n=56 v=34
21280 On ch=1 n=56 v=0
21359 On ch=1 n=35 v=0
21359 On ch=1 n=47 v=0
21360 On ch=1 n=35 v=35
21360 On ch=1 n=47 v=22
21599 On ch=1 n=47 v=0
21599 On ch=1 n=35 v=0
21600 On ch=1 n=40 v=41
21600 On ch=1 n=52 v=32
21600 On ch=1 n=56 v=20
21640 On ch=1 n=56 v=0
22079 On ch=1 n=52 v=0
22079 On ch=1 n=40 v=0
22080 On ch=1 n=51 v=40
22080 On ch=1 n=39 v=33
22559 On ch=1 n=39 v=0
22559 On ch=1 n=51 v=0
22560 On ch=1 n=52 v=36
22560 On ch=1 n=40 v=42
22799 On ch=1 n=40 v=0
22799 On ch=1 n=52 v=0
22800 On ch=1 n=39 v=58
22800 On ch=1 n=51 v=57
22919 On ch=1 n=51 v=0
22919 On ch=1 n=39 v=0
22920 On ch=1 n=37 v=57
22920 On ch=1 n=49 v=65
23039 On ch=1 n=49 v=0
23039 On ch=1 n=37 v=0
23040 On ch=1 n=44 v=40
23040 On ch=1 n=48 v=60
23040 On ch=1 n=36 v=51
23279 On ch=1 n=36 v=0
23279 On ch=1 n=48 v=0
23279 On ch=1 n=44 v=0
23280 On ch=1 n=37 v=38
23280 On ch=1 n=49 v=36
23280 On ch=1 n=44 v=43
23399 On ch=1 n=44 v=0
23399 On ch=1 n=49 v=0
23399 On ch=1 n=37 v=0
23520 On ch=1 n=42 v=17
23520 On ch=1 n=30 v=34
23759 On ch=1 n=30 v=0
23759 On ch=1 n=42 v=0
23760 On ch=1 n=32 v=26
23760 On ch=1 n=44 v=30
23999 On ch=1 n=44 v=0
23999 On ch=1 n=32 v=0
24000 On ch=1 n=49 v=25
24000 On ch=1 n=37 v=29
24599 On ch=1 n=37 v=0
24599 On ch=1 n=49 v=0
24600 On ch=1 n=42 v=49
24600 On ch=1 n=54 v=48
24719 On ch=1 n=54 v=0
24719 On ch=1 n=42 v=0
24720 On ch=1 n=45 v=79
24839 On ch=1 n=45 v=0
24840 On ch=1 n=42 v=31
24840 On ch=1 n=54 v=31
24959 On ch=1 n=54 v=0
24959 On ch=1 n=42 v=0
24960 On ch=1 n=49 v=34
24960 On ch=1 n=37 v=27
25559 On ch=1 n=37 v=0
25559 On ch=1 n=49 v=0
25560 On ch=1 n=54 v=44
25560 On ch=1 n=42 v=50
25679 On ch=1 n=42 v=0
25679 On ch=1 n=54 v=0
25680 On ch=1 n=45 v=72
25799 On ch=1 n=45 v=0
25800 On ch=1 n=42 v=39
25800 On ch=1 n=54 v=30
25919 On ch=1 n=54 v=0
25919 On ch=1 n=42 v=0
25920 On ch=1 n=37 v=35
25920 On ch=1 n=49 v=25
26159 On ch=1 n=49 v=0
26159 On ch=1 n=37 v=0
26160 On ch=1 n=42 v=26
26160 On ch=1 n=30 v=28
26399 On ch=1 n=30 v=0
26399 On ch=1 n=42 v=0
26400 On ch=1 n=39 v=38
26400 On ch=1 n=51 v=29
26759 On ch=1 n=51 v=0
26759 On ch=1 n=39 v=0
26760 On ch=1 n=40 v=32
26760 On ch=1 n=52 v=24
26879 On ch=1 n=52 v=0
26879 On ch=1 n=40 v=0
26880 On ch=1 n=37 v=37
26880 On ch=1 n=49 v=39
26999 On ch=1 n=49 v=0
26999 On ch=1 n=37 v=0
27000 On ch=1 n=51 v=38
27000 On ch=1 n=39 v=39
27119 On ch=1 n=39 v=0
27119 On ch=1 n=51 v=0
27120 On ch=1 n=36 v=39
27120 On ch=1 n=56 v=38
27120 On ch=1 n=48 v=35
27160 On ch=1 n=56 v=0
27239 On ch=1 n=48 v=0
27239 On ch=1 n=36 v=0
27240 On ch=1 n=56 v=38
27240 On ch=1 n=49 v=33
27240 On ch=1 n=37 v=36
27280 On ch=1 n=56 v=0
27359 On ch=1 n=37 v=0
27359 On ch=1 n=49 v=0
27360 On ch=1 n=54 v=48
27360 On ch=1 n=45 v=34
27360 On ch=1 n=33 v=29
27400 On ch=1 n=54 v=0
27480 On ch=1 n=54 v=46
27520 On ch=1 n=54 v=0
27599 On ch=1 n=33 v=0
27599 On ch=1 n=45 v=0
27600 On ch=1 n=32 v=44
27600 On ch=1 n=44 v=40
27600 On ch=1 n=56 v=54
27640 On ch=1 n=56 v=0
27719 On ch=1 n=44 v=0
27719 On ch=1 n=32 v=0
27720 On ch=1 n=30 v=45
27720 On ch=1 n=42 v=44
27839 On ch=1 n=42 v=0
27839 On ch=1 n=30 v=0
27840 On ch=1 n=32 v=43
27840 On ch=1 n=56 v=45
27840 On ch=1 n=44 v=31
27880 On ch=1 n=56 v=0
27960 On ch=1 n=56 v=32
28000 On ch=1 n=56 v=0
28079 On ch=1 n=44 v=0
28079 On ch=1 n=32 v=0
28080 On ch=1 n=54 v=13
28080 On ch=1 n=32 v=35
28080 On ch=1 n=44 v=30
28120 On ch=1 n=54 v=0
28200 On ch=1 n=54 v=42
28240 On ch=1 n=54 v=0
28319 On ch=1 n=44 v=0
28319 On ch=1 n=32 v=0
28320 On ch=1 n=44 v=27
28320 On ch=1 n=52 v=39
28320 On ch=1 n=37 v=33
28360 On ch=1 n=52 v=0
28360 On ch=1 n=56 v=34
28400 On ch=1 n=56 v=0
28440 On ch=1 n=56 v=44
28480 On ch=1 n=56 v=0
28560 On ch=1 n=56 v=36
28600 On ch=1 n=56 v=0
28679 On ch=1 n=44 v=0
28680 On ch=1 n=56 v=43
28680 On ch=1 n=44 v=61
28720 On ch=1 n=56 v=0
28770 On ch=1 n=44 v=0
28770 On ch=1 n=44 v=61
28799 On ch=1 n=37 v=0
28800 On ch=1 n=44 v=0
28800 On ch=1 n=36 v=52
28800 On ch=1 n=44 v=46
28800 On ch=1 n=56 v=51
28840 On ch=1 n=56 v=0
28920 On ch=1 n=56 v=46
28960 On ch=1 n=56 v=0
29040 On ch=1 n=56 v=44
29080 On ch=1 n=56 v=0
29159 On ch=1 n=44 v=0
29160 On ch=1 n=56 v=56
29160 On ch=1 n=44 v=64
29200 On ch=1 n=56 v=0
29250 On ch=1 n=44 v=0
29250 On ch=1 n=44 v=48
29279 On ch=1 n=36 v=0
29280 On ch=1 n=44 v=0
29280 On ch=1 n=56 v=45
29280 On ch=1 n=44 v=55
29280 On ch=1 n=37 v=43
29320 On ch=1 n=56 v=0
29639 On ch=1 n=44 v=0
29640 On ch=1 n=44 v=69
29730 On ch=1 n=44 v=0
29730 On ch=1 n=44 v=62
29759 On ch=1 n=37 v=0
29760 On ch=1 n=44 v=0
29760 On ch=1 n=32 v=60
29760 On ch=1 n=44 v=60
30119 On ch=1 n=44 v=0
30119 On ch=1 n=32 v=0
30120 On ch=1 n=44 v=49
30160 On ch=1 n=56 v=36
30200 On ch=1 n=56 v=0
30200 On ch=1 n=54 v=56
30210 On ch=1 n=44 v=0
30210 On ch=1 n=44 v=51
30240 On ch=1 n=44 v=0
30240 On ch=1 n=54 v=0
30240 On ch=1 n=52 v=51
30240 On ch=1 n=37 v=44
30240 On ch=1 n=44 v=52
30280 On ch=1 n=52 v=0
30599 On ch=1 n=44 v=0
30599 On ch=1 n=37 v=0
30600 On ch=1 n=44 v=61
30690 On ch=1 n=44 v=0
30690 On ch=1 n=44 v=64
30720 On ch=1 n=44 v=0
30720 On ch=1 n=32 v=54
30720 On ch=1 n=44 v=61
31079 On ch=1 n=44 v=0
31079 On ch=1 n=32 v=0
31080 On ch=1 n=44 v=56
31120 On ch=1 n=56 v=52
31160 On ch=1 n=56 v=0
31160 On ch=1 n=54 v=47
31170 On ch=1 n=44 v=0
31170 On ch=1 n=44 v=51
31200 On ch=1 n=44 v=0
31200 On ch=1 n=54 v=0
31200 On ch=1 n=44 v=46
31200 On ch=1 n=52 v=49
31200 On ch=1 n=37 v=47
31240 On ch=1 n=52 v=0
31240 On ch=1 n=56 v=45
31280 On ch=1 n=56 v=0
31400 On ch=1 n=56 v=30
31439 On ch=1 n=44 v=0
31440 On ch=1 n=56 v=0
31440 On ch=1 n=49 v=54
31480 On ch=1 n=52 v=29
31520 On ch=1 n=52 v=0
31520 On ch=1 n=56 v=33
31560 On ch=1 n=56 v=0
31600 On ch=1 n=56 v=40
31640 On ch=1 n=56 v=0
31640 On ch=1 n=52 v=34
31679 On ch=1 n=49 v=0
31680 On ch=1 n=52 v=0
31680 On ch=1 n=44 v=38
31720 On ch=1 n=49 v=38
31760 On ch=1 n=49 v=0
31760 On ch=1 n=52 v=35
31799 On ch=1 n=44 v=0
31800 On ch=1 n=52 v=0
31800 On ch=1 n=56 v=51
31840 On ch=1 n=56 v=0
31840 On ch=1 n=52 v=37
31880 On ch=1 n=52 v=0
31880 On ch=1 n=49 v=36
31920 On ch=1 n=49 v=0
31920 On ch=1 n=44 v=33
31960 On ch=1 n=44 v=0
31960 On ch=1 n=49 v=36
32000 On ch=1 n=49 v=0
32000 On ch=1 n=44 v=40
32040 On ch=1 n=44 v=0
32040 On ch=1 n=40 v=44
32080 On ch=1 n=40 v=0
32080 On ch=1 n=44 v=39
32120 On ch=1 n=44 v=0
32120 On ch=1 n=40 v=41
32159 On ch=1 n=37 v=0
32160 On ch=1 n=40 v=0
32160 On ch=1 n=37 v=43
32399 On ch=1 n=37 v=0
32400 On ch=1 n=37 v=33
32400 On ch=1 n=44 v=33
32400 On ch=1 n=49 v=27
32400 On ch=1 n=52 v=34
32400 On ch=1 n=56 v=51
32639 On ch=1 n=56 v=0
32639 On ch=1 n=49 v=0
32639 On ch=1 n=37 v=0
32639 On ch=1 n=44 v=0
32639 On ch=1 n=52 v=0
32640 On ch=1 n=37 v=22
32640 On ch=1 n=49 v=23
32640 On ch=1 n=44 v=29
32640 On ch=1 n=52 v=18
32640 On ch=1 n=56 v=38
33119 On ch=1 n=56 v=0
33119 On ch=1 n=44 v=0
33119 On ch=1 n=37 v=0
33119 On ch=1 n=49 v=0
33119 On ch=1 n=52 v=0
33119 Meta TrkEnd
TrkEnd
MTrk
0 Meta 0x21 00
0 Meta TrkName "by Beethoven"
0 Meta TrkEnd
TrkEnd
MTrk
0 Meta 0x21 00
0 Meta TrkName "G.J.Arsante"
0 Meta TrkEnd
TrkEnd
MTrk
0 Meta 0x21 00
0 Meta TrkEnd
TrkEnd
MTrk
0 Meta 0x21 00
0 Meta TrkEnd
TrkEnd
MTrk
0 Meta 0x21 00
0 Meta TrkEnd
TrkEnd


